<?xml version="1.0" encoding="utf-8"?>
<!-- Generator: Adobe Illustrator 28.2.0, SVG Export Plug-In . SVG Version: 6.00 Build 0)  -->
<svg version="1.1" id="Layer_1" xmlns="http://www.w3.org/2000/svg" xmlns:xlink="http://www.w3.org/1999/xlink" x="0px" y="0px"
	 viewBox="0 0 500 500" style="enable-background:new 0 0 500 500;" xml:space="preserve">
<style type="text/css">
	.st0{fill:#FFFF;}
	.st1{fill:#FFFF;}
</style>
<line class="st0" x1="250.06" y1="225.7" x2="250.06" y2="383.7"/>
<g>
	<path class="st1" d="M134.35,308.14c0-14.15-0.05-28.29,0.05-42.44c0.02-2.25-0.61-3.6-2.61-4.79c-7.93-4.73-8.14-3.15-5.05-13.2
		c2.35-7.65,4.54-15.36,7.14-22.92c0.69-1.99,2.3-4.14,4.08-5.19c15.13-8.95,30.37-17.72,45.65-26.41c2.55-1.45,4.24-3.3,5.47-5.94
		c3.43-7.36,7.5-14.44,10.51-21.96c2.38-5.95,2.72-12.36-1.27-18.09c-8.23-11.84-8.17-12.82-0.06-24.7c1.48-2.16,2.09-5.04,2.6-7.68
		c0.44-2.26,0.1-4.66,0.19-7c0.23-5.7,3.31-9.25,8.55-11.12c0.63-0.22,1.24-0.53,1.89-0.64c5.9-1.01,9.81-4.48,13.06-9.41
		c4.68-7.11,8.85-8.47,16.87-5.45c5.66,2.13,10.84,2.03,16.47-0.05c7.95-2.94,12.11-1.55,16.83,5.6c3.18,4.82,7.12,7.79,12.75,9.35
		c8.44,2.33,11.08,6.06,10.67,14.9c-0.26,5.7,1.32,10.29,4.83,14.73c5.51,6.96,5.49,11.6-0.14,18.62
		c-6.12,7.63-6.16,15.49-2.05,23.86c3.33,6.79,6.55,13.63,10.03,20.35c0.81,1.56,2.2,3.09,3.71,3.98
		c15.46,9.05,30.98,18,46.53,26.88c2.29,1.31,3.63,2.96,4.38,5.51c2.69,9.17,5.49,18.32,8.43,27.42c0.95,2.96,0.44,5.22-2.41,6.32
		c-5.68,2.18-6.7,6.17-6.62,11.93c0.34,26.5,0.1,53.02,0.21,79.52c0.01,3.3-1.08,5.28-3.97,6.94
		c-35.89,20.6-71.74,41.29-107.55,62.05c-2.72,1.58-4.85,1.7-7.65,0.08c-35.98-20.9-72.02-41.7-108.1-62.44
		c-2.57-1.48-3.5-3.24-3.48-6.15C134.42,336.43,134.35,322.28,134.35,308.14z M141.77,267.29c-0.12,1.39-0.23,2.16-0.23,2.92
		c-0.01,25.95,0.02,51.9-0.06,77.84c-0.01,2.15,0.94,3.1,2.64,4.07c33.07,19.03,66.11,38.12,99.16,57.19
		c0.81,0.47,1.7,0.81,2.63,1.25c0-31.17,0-62.01,0-92.85c-0.7,1.22-1.08,2.48-1.43,3.75c-1.71,6.16-3.11,6.71-8.61,3.35
		c-29.22-17.9-58.44-35.8-87.67-53.69C146.23,269.92,144.24,268.76,141.77,267.29z M253.45,410.75c0.95-0.49,1.44-0.71,1.91-0.98
		c33.42-19.31,66.83-38.63,100.29-57.88c1.75-1.01,2.12-2.21,2.12-4.03c-0.04-25.95-0.03-51.89-0.04-77.84
		c0-0.8-0.16-1.61-0.28-2.67c-1.1,0.63-1.87,1.05-2.62,1.5c-19.64,12.02-39.27,24.06-58.91,36.08c-11.1,6.8-22.2,13.59-33.31,20.37
		c-4.4,2.69-6.23,1.92-7.62-3.12c-0.34-1.23-0.71-2.45-1.06-3.67c-0.16,0.03-0.31,0.07-0.47,0.1
		C253.45,349.17,253.45,379.73,253.45,410.75z M145.23,223.63c0.98,0.62,1.44,0.93,1.91,1.21c33.34,19.26,66.7,38.48,99.99,57.83
		c2.17,1.26,3.57,0.78,5.42-0.28c27.15-15.73,54.34-31.41,81.51-47.11c6.52-3.76,13.02-7.55,20.02-11.61
		c-12.07-6.97-23.69-13.67-35.31-20.38c1.94,5.49,4.34,10.36,6.77,15.23c0.94,1.89,1.82,4.11-0.25,5.38
		c-1.29,0.79-3.67,0.78-5.13,0.14c-6.11-2.67-12.06-5.72-18.07-8.61c-1.14-0.55-2.3-1.03-3.62-1.62
		c-1.88,8.35-3.58,16.29-5.54,24.16c-0.31,1.26-1.74,3.02-2.79,3.11c-1.33,0.12-2.91-1.06-4.14-2c-0.72-0.55-0.98-1.71-1.41-2.61
		c-7.25-14.91-14.48-29.82-21.78-44.7c-0.44-0.89-1.3-1.82-2.19-2.2c-6.87-2.9-13.84-4.32-20.81-0.36c-1.41,0.8-3.03,1.86-3.71,3.22
		c-5.47,10.94-10.72,22-16.08,33c-2.09,4.3-4.11,8.66-6.52,12.78c-0.82,1.4-2.81,3.06-4.14,2.96c-1.21-0.09-2.61-2.25-3.28-3.78
		c-0.83-1.9-0.99-4.09-1.46-6.15c-1.29-5.72-2.58-11.44-3.94-17.46c-7.2,3.48-14,6.75-20.79,10.06c-2.04,0.99-4.07,2.16-6.11,0.13
		c-2.11-2.1-0.65-4.11,0.3-6.09c2.3-4.75,4.62-9.48,6.93-14.22c-0.17-0.14-0.34-0.28-0.51-0.42
		C168.92,209.94,157.31,216.65,145.23,223.63z M238.04,317.69c2.52-9.43,4.95-18.52,7.42-27.78
		c-35.17-20.29-70.16-40.48-105.42-60.82c-2.23,7.36-4.14,14.22-6.44,20.94c-0.89,2.59-0.19,3.7,1.96,5.01
		c25.47,15.51,50.89,31.11,76.32,46.68C220.5,306.99,229.12,312.24,238.04,317.69z M359.26,229.2c-1.29,0.7-2.07,1.11-2.84,1.55
		c-18.59,10.72-37.17,21.44-55.76,32.16c-14.73,8.5-29.48,16.97-44.16,25.56c-1.01,0.59-2.34,2.21-2.14,3.02
		c2.09,8.6,4.47,17.14,6.91,26.24c35.3-21.61,70.23-43,105.32-64.49C364.15,245.23,361.77,237.42,359.26,229.2z M291.49,115.14
		c0.35-8.93-0.39-10.85-6.42-12.32c-6.83-1.66-11.72-5.14-15.18-11.32c-2.64-4.71-5.44-5.63-10.42-3.49
		c-6.57,2.83-12.71,2.88-19.29,0.04c-5.11-2.2-7.65-1.37-10.4,3.37c-3.55,6.1-8.49,9.62-15.3,11.27c-5.78,1.4-6.77,2.77-6.34,8.76
		c0.51,6.99-1.42,12.77-5.97,18.09c-3.75,4.38-3.74,6.38,0.07,10.84c4.56,5.34,6.38,11.16,5.88,18.12c-0.43,5.94,0.65,7.33,6.39,8.7
		c6.69,1.59,11.59,5.13,15.19,10.99c3.23,5.27,4.66,5.72,10.48,3.41c6.36-2.52,12.45-2.49,18.8,0.01c5.8,2.28,7.28,1.91,10.52-3.36
		c3.68-5.97,8.63-9.57,15.46-11.1c5.1-1.14,6.44-2.75,6.03-8.01c-0.58-7.47,1.54-13.66,6.38-19.32c3.34-3.91,3.03-5.6,0.05-9.83
		c-0.51-0.73-1.02-1.46-1.61-2.13C292.41,123.99,290.51,119.65,291.49,115.14z M204.88,171.29c-6.76,13.84-13.58,27.8-20.81,42.61
		c5.6-2.73,10.17-5.02,14.79-7.19c5.79-2.71,7.14-2.07,8.55,4.04c1.19,5.17,2.26,10.36,3.54,16.26c0.84-1.55,1.38-2.47,1.85-3.43
		c5.09-10.37,10.09-20.78,15.31-31.09c1.26-2.49,1.64-4.12-0.89-6.13c-1.94-1.54-3.01-4.15-4.81-5.92c-1.94-1.9-4.1-3.76-6.5-4.95
		C212.47,173.78,208.71,172.71,204.88,171.29z M288.26,226.77c1.24-5.65,2.36-10.84,3.52-16.02c1.41-6.29,2.62-6.87,8.39-4.11
		c4.74,2.27,9.49,4.51,14.98,7.12c-7.25-14.8-14.1-28.79-20.5-41.86c-11.89,1.18-18.98,8.38-24.79,17.74
		c5.59,11.48,11.47,23.54,17.36,35.61C287.41,225.63,287.7,225.95,288.26,226.77z"/>
	<path class="st1" d="M386.69,100.39c1.76,2.23,3.32,3.35,3.66,4.77c2,8.43,3.45,9.86,11.42,11.57c1.31,0.28,3.15,2.24,3.14,3.4
		c-0.02,1.21-1.87,3.3-3.11,3.45c-7.07,0.82-10.72,4.5-11.51,11.57c-0.14,1.21-2.29,3.06-3.49,3.04c-1.2-0.02-3.12-1.84-3.42-3.16
		c-1.79-7.98-3.43-9.82-11.28-11.25c-2.18-0.4-3.79-1.66-3.3-3.75c0.32-1.33,2-3.05,3.32-3.31c7.3-1.42,9.89-3.95,11.19-11.1
		C383.59,104.1,385.09,102.8,386.69,100.39z M386.72,116.73c-1.1,1.08-2.27,2.23-3.27,3.2c1.17,1.37,2.24,2.61,3.4,3.97
		c1.26-1.27,2.4-2.44,3.69-3.75C389.32,119.06,388.17,118.03,386.72,116.73z"/>
	<path class="st1" d="M131.52,121.46c-0.95,0.61-2.27,2.04-3.79,2.3c-6.79,1.19-9.84,3.99-10.71,10.69
		c-0.3,2.29-1.25,3.92-3.68,3.89c-2.38-0.02-3.38-1.53-3.62-3.91c-0.65-6.3-4.16-9.84-10.41-10.59c-2.41-0.29-4.19-1.2-4.09-3.83
		c0.09-2.41,1.72-3.26,4.05-3.5c6-0.61,9.77-4.32,10.4-10.27c0.26-2.44,1.09-4.24,3.67-4.24c2.62-0.01,3.42,1.93,3.7,4.28
		c0.76,6.25,4.15,9.53,10.67,10.3C130.08,116.87,131.37,117.96,131.52,121.46z M113.28,123.36c1.11-1.09,2.26-2.23,3.15-3.1
		c-1.06-1.1-2.17-2.25-3.04-3.14c-1.12,0.94-2.3,1.94-3.64,3.07C110.96,121.28,112.1,122.3,113.28,123.36z"/>
	<path class="st1" d="M348.32,157.79c-1.35,0.98-2.58,2.47-4.08,2.86c-4.77,1.21-6.3,2.4-7.07,7.13c-0.37,2.26-1.58,3.81-3.65,3.37
		c-1.33-0.28-3.1-1.98-3.34-3.29c-0.8-4.38-3.08-6.54-7.45-7.29c-1.26-0.22-3.07-2.26-3.06-3.46c0-1.19,1.85-3.21,3.11-3.41
		c4.44-0.7,6.57-2.99,7.33-7.35c0.23-1.29,2.1-2.96,3.45-3.22c2.08-0.4,3.23,1.24,3.6,3.46c0.76,4.6,2.31,5.86,6.78,6.98
		c1.56,0.39,2.87,1.75,4.3,2.66C348.28,156.75,348.3,157.27,348.32,157.79z"/>
	<path class="st1" d="M166.69,172.82c-1.7-2.22-3.28-3.37-3.51-4.75c-0.76-4.49-3.03-6.85-7.61-7.51c-1.18-0.17-3.01-2.15-2.93-3.2
		c0.09-1.32,1.68-3.44,2.86-3.61c4.57-0.68,6.81-3,7.63-7.49c0.23-1.26,2.27-3.06,3.46-3.05c1.17,0.01,3.07,1.86,3.33,3.17
		c0.87,4.29,2.95,6.65,7.42,7.31c1.25,0.19,2.89,2.09,3.18,3.46c0.46,2.15-1.25,3.25-3.42,3.62c-4.72,0.81-5.88,2.23-7.12,7.08
		C169.62,169.3,168.28,170.49,166.69,172.82z"/>
	<path class="st1" d="M402.4,202.84c-2.16,1.72-3.29,3.28-4.69,3.58c-3.16,0.68-4.75,2.17-5.41,5.41c-0.26,1.27-2.29,3.03-3.49,3.02
		c-1.2-0.02-3.12-1.81-3.41-3.12c-0.68-3.05-2.08-4.78-5.19-5.16c-2.14-0.27-3.61-1.48-3.52-3.71c0.08-2.19,1.52-3.24,3.72-3.52
		c2.9-0.36,4.29-2.11,4.97-5.02c0.31-1.34,1.98-3,3.33-3.32c2.12-0.52,3.51,1.12,3.72,3.31c0.31,3.2,2.2,4.49,5.15,5.21
		C398.99,199.86,400.17,201.25,402.4,202.84z"/>
	<path class="st1" d="M124.79,202.94c-2.24,1.67-3.44,3.19-4.93,3.55c-2.86,0.69-4.57,2-4.92,5.01c-0.24,2.11-1.36,3.59-3.66,3.56
		c-2.26-0.03-3.33-1.38-3.59-3.59c-0.34-2.93-2.02-4.54-5-4.9c-2.11-0.25-3.62-1.38-3.56-3.67c0.06-2.24,1.46-3.29,3.66-3.55
		c2.91-0.35,4.62-2.06,4.91-5.01c0.22-2.27,1.56-3.81,3.64-3.36c1.35,0.3,3.08,1.95,3.37,3.27c0.72,3.24,2.44,4.65,5.57,5.28
		C121.59,199.81,122.65,201.27,124.79,202.94z"/>
	<path class="st1" d="M287.11,135.17c0.15,20.04-16.6,36.98-36.91,37.32c-20.65,0.35-38.02-16.56-38.14-37.13
		c-0.12-21.24,15.97-37.5,37.3-37.7C270.76,97.46,286.94,113.53,287.11,135.17z M219.34,134.55c-0.02,17.44,13.04,30.59,30.31,30.52
		c17.29-0.06,30.49-13.41,30.3-30.64c-0.17-16.34-13.82-29.83-30.24-29.88C233.1,104.51,219.35,118.08,219.34,134.55z"/>
	<path class="st1" d="M258.07,152.73c-1.54-0.77-3.79-1.72-5.84-2.99c-1.83-1.14-3.37-1.24-5.19-0.02c-1.46,0.99-3.1,1.74-4.72,2.46
		c-3.2,1.42-6.33-0.42-5.38-3.58c1.87-6.24,0.34-10.66-4.73-14.62c-2.45-1.92-1.04-5.23,2.09-5.99c0.21-0.05,0.44-0.08,0.66-0.08
		c5.59,0.1,9.35-2.18,11.07-7.79c0.37-1.21,2.35-2.66,3.58-2.66c1.25,0.01,2.49,1.68,3.73,2.63c0.08,0.06,0.12,0.19,0.14,0.3
		c1.4,5.23,4.97,7.29,10.21,7.51c1.46,0.06,3.8,1.4,4.05,2.52c0.31,1.41-1.12,3.2-1.81,4.83c-0.04,0.09-0.14,0.17-0.24,0.23
		c-4.14,2.73-5.07,6.28-3.7,11.08C263.18,150.68,261.73,152.75,258.07,152.73z M243.65,134.62c0.7,2.1,1.58,4.71,2.28,6.8
		c2.71,0,5.28,0,7.09,0c0.9-2.44,1.82-4.94,2.52-6.85c-1.96-1.45-4.1-3.04-5.9-4.36C247.74,131.61,245.57,133.21,243.65,134.62z"/>
</g>
</svg>
