<?xml version="1.0" encoding="utf-8"?>
<!-- Generator: Adobe Illustrator 28.2.0, SVG Export Plug-In . SVG Version: 6.00 Build 0)  -->
<svg version="1.1" id="Layer_1" xmlns="http://www.w3.org/2000/svg" xmlns:xlink="http://www.w3.org/1999/xlink" x="0px" y="0px"
	 viewBox="0 0 500 500" style="enable-background:new 0 0 500 500;" xml:space="preserve">
<style type="text/css">
	.st0{fill:#FFFF;}
</style>
<g>
	<path class="st0" d="M246.07,334.33c0.17-1.72,0.85-2.66,2.36-2.74c0.36-0.02,0.74,0.26,1.11,0.41c-0.23,0.31-0.44,0.63-0.68,0.92
		c-0.43,0.51-0.87,1-1.32,1.49c-0.29,0.32-0.61,0.61-0.91,0.91C246.41,334.93,246.18,334.53,246.07,334.33z"/>
	<path class="st0" d="M302.04,374.47c0.6,0.87,1.09,1.53,1.51,2.25c0.04,0.06-0.46,0.43-0.7,0.66c-0.55-0.63-1.13-1.24-1.62-1.91
		C301.17,375.4,301.61,374.98,302.04,374.47z"/>
	<path class="st0" d="M159.56,375.36c0-3.62,0-6.82,0-10.92c7.05,0.57,14.31,0.01,20.86,1.89c19.18,5.52,38.15,11.83,57.07,18.2
		c13.08,4.4,25.34,3.29,37.47-3.2c36.22-19.38,72.55-38.56,108.83-57.83c5.71-3.03,11.41-6.06,17.1-9.09
		c-4.65-9.79-17.68-14.42-28.7-9.94c-14.68,5.97-29.21,12.3-43.8,18.48c-10.58,4.48-21.12,9.06-31.76,13.41
		c-2.32,0.95-4.97,1.5-7.48,1.52c-17.55,0.13-35.1,0.08-52.65,0.08c-0.54,0-1.07-0.1-1.78-0.16c0-3.32,0-6.5,0-10.16
		c1.39,0,2.69,0,3.98,0c16.32,0,32.64,0.03,48.96-0.02c6.95-0.02,11.57-4.28,11.46-10.38c-0.1-5.87-4.58-9.96-11.15-9.99
		c-12.63-0.06-25.26-0.12-37.89,0.03c-5.49,0.07-10.55-1.02-15.52-3.37c-10.09-4.76-20.34-9.18-30.48-13.86
		c-5.68-2.62-11.56-3.91-17.83-3.82c-8.81,0.13-17.61,0.03-26.62,0.03c0-3.47,0-6.67,0-9.88c0.16-0.12,0.33-0.37,0.5-0.37
		c12.38,0.25,24.88-0.43,37.09,1.14c7.49,0.96,14.59,5.25,21.76,8.29c7.39,3.14,14.6,6.71,22,9.84c2.3,0.97,4.93,1.55,7.42,1.58
		c12.18,0.16,24.39,0.57,36.54-0.06c13.97-0.72,24.45,7.34,24.86,22.59c2.35-0.95,4.59-1.82,6.81-2.76
		c16.55-6.98,33.08-14.02,49.65-20.96c21.11-8.84,41.62,1.04,48.04,23.39c-4.13,2.21-8.32,4.48-12.53,6.71
		c-40.93,21.69-81.9,43.32-122.8,65.08c-14.09,7.49-28.57,8.76-43.72,3.83c-19.2-6.26-38.44-12.41-57.67-18.55
		c-1.56-0.5-3.27-0.72-4.91-0.76C168.45,375.29,164.21,375.36,159.56,375.36z"/>
	<path class="st0" d="M254.83,102.56c2.79-0.8,3.9,0.84,4.86,3.15c4.75,11.44,9.66,22.81,14.39,34.26c0.93,2.25,1.95,3.47,4.67,3.76
		c12.11,1.29,24.17,2.93,36.26,4.4c4.53,0.55,5.51,1.27,5.99,5.86c0.11,1.08-0.96,2.59-1.91,3.42c-9.48,8.35-19,16.65-28.62,24.83
		c-1.87,1.59-2.3,3-1.8,5.42c2.56,12.35,4.8,24.76,7.32,37.12c0.48,2.37-0.15,3.7-2.08,4.97c-1.84,1.22-3.21,2.17-5.59,0.69
		c-10.91-6.78-21.99-13.27-32.93-20c-1.89-1.16-3.22-1.13-5.12-0.06c-11.08,6.26-22.34,12.22-33.33,18.63
		c-2.98,1.74-4.35,0.06-6.42-1.15c-2.25-1.31-1.75-3-1.31-4.88c2.89-12.39,5.68-24.8,8.71-37.16c0.55-2.24-0.01-3.44-1.58-4.88
		c-9.3-8.55-18.38-17.34-27.82-25.73c-2.68-2.37-1.48-4.33-0.97-6.74c0.52-2.45,2.3-2.3,4.09-2.45c12.92-1.08,25.84-2.13,38.74-3.4
		c1.18-0.12,2.71-1.4,3.26-2.54c5.49-11.48,10.89-23,16.12-34.6C250.88,103.07,252.19,101.93,254.83,102.56z M303.4,157.32
		c-1.23-0.27-1.64-0.39-2.06-0.44c-9.75-1.18-19.49-2.44-29.26-3.46c-2.78-0.29-4.31-1.38-5.32-4.02
		c-2.1-5.52-4.53-10.92-6.84-16.36c-1.73-4.08-3.5-8.15-5.49-12.79c-4.64,9.97-9.1,19.3-13.3,28.74c-1.17,2.63-2.79,3.6-5.51,3.77
		c-6.13,0.38-12.25,0.96-18.36,1.49c-4.13,0.36-8.25,0.79-13.05,1.25c6.81,6.34,12.69,12.52,19.31,17.75
		c5.43,4.29,7,8.47,4.75,15.24c-2.7,8.09-4.03,16.63-6.07,25.5c1.48-0.76,2.46-1.23,3.4-1.75c7.91-4.38,15.91-8.6,23.66-13.24
		c2.94-1.75,5.09-1.57,7.81,0.2c5.14,3.34,10.48,6.4,15.73,9.57c3.4,2.05,6.81,4.09,10.74,6.45c-2.09-10.69-3.93-20.77-6.1-30.78
		c-0.65-3.01,0.03-4.81,2.39-6.77C287.64,171.18,295.21,164.43,303.4,157.32z"/>
	<path class="st0" d="M337.79,155.75c-3.64,7.82-6.95,14.74-10.08,21.73c-1.31,2.93-3.11,4.69-6.53,4.7
		c-2.88,0.01-5.76,0.42-9.07,0.69c-0.32-3.4-0.62-6.66-0.92-9.98c0.65-0.22,1.08-0.52,1.46-0.46c5.29,0.84,7.29-2.35,9.1-6.63
		c3.34-7.91,7.14-15.63,10.86-23.38c0.95-1.97,1.45-4.29,4.76-4.28c3.51,0.01,4.82,1.76,5.98,4.57c3.79,9.18,7.82,18.26,11.61,27.44
		c0.79,1.92,1.82,2.63,3.89,2.85c10.1,1.11,20.18,2.43,30.26,3.71c1.66,0.21,3.54-0.18,4.19,2.34c0.68,2.64,1.1,5.05-1.09,7.14
		c-1.37,1.31-2.83,2.54-4.26,3.78c-6.16,5.35-12.25,10.79-18.55,15.97c-2.06,1.69-2.42,3.33-1.93,5.75
		c2.08,10.17,3.86,20.4,6.08,30.54c0.79,3.61-2.13,4.02-3.84,5.33c-0.75,0.58-2.68,0.37-3.65-0.2c-9.06-5.29-18.08-10.67-27-16.2
		c-2-1.24-3.45-1.19-5.44-0.06c-9.12,5.19-18.35,10.19-27.51,15.31c-1.49,0.83-2.8,1.44-4.09-0.2c-1.34-1.71-4.3-1.99-3.32-5.64
		c2.77-10.34,5.06-20.82,7.35-31.28c0.25-1.12-0.36-2.83-1.18-3.72c-2.33-2.54-4.96-4.79-7.74-7.41c2.38-2.53,4.63-4.92,7.1-7.54
		c4.35,4.06,8.63,7.8,12.53,11.9c0.87,0.91,0.8,3.17,0.49,4.67c-1.41,6.77-3.07,13.49-4.63,20.23c-0.25,1.06-0.43,2.14-0.78,3.87
		c7.36-4.07,14.22-7.73,20.93-11.65c2.61-1.53,4.76-1.61,7.34-0.01c6.63,4.11,13.37,8.05,20.78,12.48
		c-0.89-4.89-1.63-9.08-2.41-13.26c-0.7-3.73-1.31-7.48-2.21-11.17c-0.62-2.53,0.13-4.24,2.03-5.85c5.29-4.47,10.5-9.05,15.73-13.59
		c0.82-0.71,1.58-1.48,2.87-2.71c-10.13-1.2-19.63-2.33-29.16-3.47C346.18,172.99,341.12,165.17,337.79,155.75z"/>
	<path class="st0" d="M199.47,173.87c-0.44,3.46-0.85,6.65-1.3,10.11c-4.91-0.5-9.67-0.85-14.36-1.58c-0.96-0.15-2.01-1.61-2.49-2.7
		c-2.94-6.63-5.73-13.32-8.58-19.99c-0.44-1.02-0.91-2.03-1.63-3.63c-2.48,5.29-5.22,9.98-6.9,15.03
		c-2.62,7.86-6.88,12.59-15.88,11.6c-2.72-0.3-5.55,0.47-8.33,0.71c-2.77,0.25-5.54,0.46-8.89,0.73c0.88,1.01,1.36,1.67,1.95,2.21
		c4.98,4.65,9.84,9.45,15.04,13.86c2.74,2.32,3.2,4.77,2.42,7.97c-1.71,7.05-3.31,14.12-4.94,21.19c-0.1,0.42-0.13,0.86-0.29,1.92
		c7.35-4.09,14.33-7.89,21.22-11.84c2.49-1.43,4.65-1.35,7.08,0.17c6.71,4.18,13.52,8.21,20.79,12.59
		c-1.54-8.23-2.84-15.92-4.47-23.53c-0.66-3.11-0.16-5.34,2.41-7.31c2.91-2.24,5.61-4.75,8.77-7.46c2.25,2.57,4.41,5.05,7.16,8.19
		c-0.71,0.36-1.33,0.65-1.92,0.96c-5.73,3.04-6.06,7.54-4.53,13.38c2.18,8.3,3.27,16.87,5.19,25.24c0.82,3.57-1.84,4.22-3.59,5.88
		c-1.77,1.68-2.98,0.43-4.37-0.41c-8.99-5.41-18.01-10.78-26.95-16.28c-1.66-1.02-2.89-0.99-4.56-0.05
		c-9.24,5.21-18.63,10.15-27.77,15.52c-3.16,1.86-4.35-0.72-6.32-1.72c-1.98-1-1.59-2.48-1.16-4.26c2.52-10.41,4.97-20.84,7.28-31.3
		c0.23-1.03-0.28-2.68-1.05-3.4c-8-7.48-16.13-14.8-24.17-22.24c-0.59-0.55-1.09-1.67-0.97-2.42c0.89-5.57,1.12-5.78,6.72-6.29
		c9.79-0.89,19.58-1.76,29.39-2.51c2.04-0.16,3.14-0.88,3.99-2.78c4.36-9.78,8.92-19.47,13.3-29.25c1.22-2.72,3.62-1.72,5.5-1.91
		c1.03-0.11,2.79,0.87,3.21,1.81c4.15,9.26,8.23,18.56,12.02,27.98c1.31,3.25,2.78,5.33,6.62,5.05
		C195.71,173,197.37,173.55,199.47,173.87z"/>
	<path class="st0" d="M137.58,273.04c-17.29,0-34.45,0-51.88,0c0-3.45,0-6.63,0-10.26c0.92-0.05,1.98-0.14,3.04-0.14
		c15.75-0.01,31.51-0.02,47.26,0c8.21,0.01,12.12,3.9,12.12,12.07c0.01,35.64,0.01,71.27,0,106.91c0,8.37-3.91,12.25-12.31,12.26
		c-15.53,0.02-31.06,0-46.59,0c-1.1,0-2.2,0-3.55,0c0-3.45,0-6.64,0-10.19c17.15,0,34.41,0,51.9,0
		C137.58,346.66,137.58,309.99,137.58,273.04z"/>
	<path class="st0" d="M123.99,367.26c0,4-3.17,7.25-7.13,7.3c-4.1,0.05-7.37-3.3-7.3-7.46c0.08-4.02,3.26-7.11,7.3-7.08
		C120.89,360.05,123.99,363.2,123.99,367.26z"/>
</g>
</svg>
