<?xml version="1.0" encoding="utf-8"?>
<!-- Generator: Adobe Illustrator 28.2.0, SVG Export Plug-In . SVG Version: 6.00 Build 0)  -->
<svg version="1.1" id="Layer_1" xmlns="http://www.w3.org/2000/svg" xmlns:xlink="http://www.w3.org/1999/xlink" x="0px" y="0px"
	 viewBox="0 0 500 500" style="enable-background:new 0 0 500 500;" xml:space="preserve">
<style type="text/css">
	.st0{fill:#FFFF;}
</style>
<g>
	<path class="st0" d="M321.28,324.71c-24.32,0-48.34,0-72.62,0c-2,12.6-7.84,22.88-18.4,30.19c-7.76,5.37-16.42,7.81-25.86,7.47
		c-20.77-0.75-34.78-13.46-41.3-37.78c-8.24,0-16.59,0-24.95,0c-2.25,0-4.51,0.05-6.76-0.01c-4.36-0.11-7.29-2.79-7.2-6.49
		c0.09-3.58,2.9-6.18,7.09-6.21c9.39-0.08,18.78-0.03,28.17-0.03c1.37,0,2.73,0,4.01,0c9.71-24.75,24.09-36.14,43.95-35.12
		c18.29,0.94,35.72,12.6,40.86,34.94c0.94,0.06,1.92,0.17,2.91,0.17c22.41,0.01,44.83-0.03,67.24,0.06c2.51,0.01,3.58-0.54,4.3-3.2
		c5.14-19.07,21.98-31.95,41.41-31.99c19.29-0.04,36.24,13,41.35,32.08c0.65,2.44,1.55,3.2,3.99,3.11
		c4.98-0.18,9.97-0.05,14.77-0.05c0.31-0.54,0.53-0.74,0.53-0.94c0.03-16.4,0.14-32.79,0-49.19c-0.05-6.43-3.19-11.49-8.43-15.15
		c-5.23-3.66-10.48-7.29-15.88-10.68c-1.46-0.92-3.5-1.3-5.27-1.3c-31.55-0.08-63.11-0.05-94.66-0.06c-7.33,0-9.06-1.72-9.06-9.03
		c0-23.41,0-46.82,0-70.23c0-1.36,0-2.73,0-4.64c-1.85,0-3.43,0-5.02,0c-42.82,0-85.65,0-128.47-0.01c-1.62,0-3.28,0.05-4.86-0.26
		c-3.26-0.63-5.03-2.82-5.02-6.08c0.01-3.26,1.76-5.45,5.03-6.07c1.58-0.3,3.24-0.25,4.86-0.25c34.31-0.01,68.62,0.02,102.93-0.02
		c21.91-0.03,43.82,0.02,65.73-0.33c15.65-0.25,27.26,5.89,35.64,19.28c13.52,21.62,27.59,42.9,41.51,64.27
		c1.12,1.72,2.71,3.27,4.38,4.48c4.97,3.59,10.13,6.91,15.14,10.44c9.35,6.59,14.21,15.61,14.24,27.09c0.04,17.9,0.04,35.81,0,53.71
		c-0.01,5.51-2.25,7.69-7.79,7.72c-7.62,0.04-15.24,0.01-22.79,0.01c-6.4,24.73-21.75,38.01-43.42,37.81
		C342.31,362.2,326.86,348.48,321.28,324.71z M388.17,221.68c-0.16-0.54-0.19-0.91-0.36-1.19c-13.1-20.25-26.14-40.54-39.37-60.71
		c-3.15-4.8-8-8.15-13.62-8.49c-10.06-0.6-20.18-0.17-30.36-0.17c0,23.64,0,47.07,0,70.55
		C332.52,221.68,360.26,221.68,388.17,221.68z M236.02,319.52c-0.4-17.31-13.97-30.57-30.8-30.11
		c-16.73,0.46-29.8,14.36-29.39,31.25c0.4,16.24,14.52,29.62,30.73,29.13C223.31,349.28,236.4,335.83,236.02,319.52z M334.2,318.19
		c-0.92,16.91,11.53,30.6,28.72,31.57c16.1,0.91,30.35-12.05,31.33-28.51c0.98-16.5-11.96-30.78-28.83-31.81
		C349.07,288.45,335.12,301.3,334.2,318.19z"/>
	<path class="st0" d="M108.27,242.83c-12.64,0-25.28,0.02-37.92-0.01c-4.95-0.01-7.77-2.21-7.91-6.06
		c-0.15-3.96,2.86-6.57,7.85-6.58c25.28-0.03,50.56-0.03,75.84,0c4.8,0.01,7.73,2.5,7.75,6.32c0.02,3.84-2.9,6.29-7.69,6.3
		C133.55,242.86,120.91,242.83,108.27,242.83z"/>
	<path class="st0" d="M143.98,196.9c-10.5,0-21,0.02-31.5-0.01c-4.79-0.01-7.67-2.43-7.69-6.29c-0.02-3.88,2.89-6.38,7.63-6.39
		c21.25-0.03,42.51-0.03,63.76,0c4.74,0.01,7.55,2.55,7.46,6.51c-0.09,3.81-2.82,6.15-7.4,6.16
		C165.48,196.92,154.73,196.9,143.98,196.9z"/>
	<path class="st0" d="M116.29,281.32c-7.62,0-15.24,0.12-22.86-0.04c-5.15-0.11-8.39-4.42-6.16-8.47c1.01-1.83,3.7-3.82,5.67-3.86
		c15.73-0.31,31.47-0.23,47.21-0.14c3.83,0.02,6.25,2.52,6.38,5.96c0.13,3.6-2.3,6.38-6.26,6.47c-7.99,0.17-15.99,0.05-23.98,0.05
		C116.29,281.3,116.29,281.31,116.29,281.32z"/>
</g>
</svg>
