<?xml version="1.0" encoding="utf-8"?>
<!-- Generator: Adobe Illustrator 28.2.0, SVG Export Plug-In . SVG Version: 6.00 Build 0)  -->
<svg version="1.1" id="Layer_1" xmlns="http://www.w3.org/2000/svg" xmlns:xlink="http://www.w3.org/1999/xlink" x="0px" y="0px"
	 viewBox="0 0 500 500" style="enable-background:new 0 0 500 500;" xml:space="preserve">
<style type="text/css">
	.st0{fill:#FFFF;}
</style>
<g>
	<path class="st0" d="M148.6,249.75c0-16.67,0.12-33.35-0.06-50.02c-0.07-6.6,2.61-10.81,8.48-13.87
		c28.5-14.85,56.9-29.88,85.25-45.01c5.21-2.78,9.87-2.75,15.04,0c28.09,14.96,56.21,29.88,84.46,44.54
		c6.53,3.39,9.3,7.98,9.26,15.33c-0.21,32.94-0.19,65.88-0.01,98.82c0.04,7.12-2.77,11.57-9.04,14.83
		c-28.33,14.73-56.54,29.68-84.73,44.69c-5.19,2.76-9.85,2.73-15.04-0.04c-28.54-15.21-57.14-30.3-85.79-45.31
		c-5.4-2.83-7.9-6.92-7.86-13.01C148.67,283.72,148.6,266.74,148.6,249.75z M343.59,198.59c-1.76,0.88-2.93,1.47-4.09,2.06
		c-27.66,14.02-55.3,28.06-83,41.99c-2.33,1.17-3.13,2.42-3.12,5.06c0.11,33.65,0.07,67.31,0.07,100.96c0,1.16,0,2.32,0,3.92
		c1.38-0.68,2.2-1.05,2.99-1.47c27.42-14.49,54.81-29.03,82.29-43.39c3.57-1.87,4.94-4.15,4.93-8.16
		c-0.12-32.32-0.07-64.65-0.07-96.97C343.59,201.48,343.59,200.38,343.59,198.59z M156.1,198.63c-0.08,1.27-0.14,1.87-0.14,2.48
		c0,33.25,0.03,66.51-0.05,99.76c-0.01,3.42,1.64,5.12,4.42,6.58c27.73,14.56,55.43,29.2,83.14,43.81c0.74,0.39,1.54,0.67,2.35,1.02
		c0.15-0.52,0.25-0.72,0.25-0.91c0.02-35.09,0.04-70.19-0.04-105.28c0-0.92-0.9-2.25-1.74-2.69c-8.78-4.58-17.62-9.01-26.46-13.47
		c-0.58-0.29-1.24-0.43-2.06-0.71c0,1.39,0,2.51,0,3.64c0,12.18,0.02,24.35-0.01,36.53c-0.01,3.83-1.75,6.51-4.95,7.69
		c-3.34,1.23-6.2,0.37-8.63-2.16c-1.77-1.84-3.69-3.57-5.27-5.56c-1.76-2.24-3.62-2.59-6.36-1.9c-7.11,1.79-11.03-1.46-11.03-8.8
		c0-15.35,0.03-30.69-0.02-46.04c0-0.87-0.36-2.2-0.97-2.52C171.22,206.25,163.86,202.56,156.1,198.63z M208.4,270.04
		c0-13.7,0.09-27.1-0.04-40.5c-0.06-6.24,2.57-10.34,8.13-13.13c27.62-13.89,55.16-27.93,82.73-41.92c0.87-0.44,1.71-0.94,2.88-1.59
		c-6.35-3.35-12.33-6.43-18.23-9.66c-1.52-0.83-2.69-0.75-4.21,0.02c-29.64,15.08-59.31,30.12-89,45.1
		c-2.7,1.36-3.89,3.16-3.87,6.24c0.11,14.32,0.05,28.65,0.05,42.98c0,0.9,0.08,1.81,0.14,2.97c1.18-0.19,2.2-0.22,3.14-0.52
		c4.51-1.44,8.11-0.31,11.22,3.31C203.36,265.7,205.85,267.65,208.4,270.04z M220.47,222.83c1.17,0.67,2.01,1.2,2.88,1.64
		c7.18,3.64,14.48,7.08,21.52,10.99c3.56,1.97,6.44,1.75,9.97-0.08c18.47-9.56,37.07-18.88,55.62-28.29
		c9.45-4.79,18.89-9.59,28.61-14.52c-0.98-0.58-1.64-1.01-2.34-1.38c-8.02-4.25-16.08-8.42-24.04-12.77
		c-1.86-1.02-3.24-0.89-5.06,0.04c-28.07,14.3-56.18,28.51-84.28,42.76C222.48,221.66,221.65,222.17,220.47,222.83z M273.83,157.98
		c-7.18-3.79-13.79-7.17-20.28-10.77c-2.72-1.51-5.02-1.34-7.73,0.11c-20.15,10.74-40.37,21.35-60.56,32.01
		c-8.19,4.33-16.38,8.66-24.91,13.17c7.52,3.83,14.68,7.5,21.89,11.08c0.58,0.29,1.6,0.17,2.22-0.14
		c15.63-7.93,31.23-15.92,46.85-23.87C245.3,172.44,259.3,165.35,273.83,157.98z"/>
	<path class="st0" d="M398.8,250.15c-0.63,72.55-53.46,134.97-124.59,146.58c-33.59,5.48-65.42,0.17-95.39-16.01
		c-1.42-0.77-2.98-2.45-3.25-3.93c-0.53-2.89,2.76-4.32,5.94-2.88c7.24,3.27,14.33,7.01,21.8,9.63
		c78.42,27.49,163.77-19.11,183.4-99.98c19.15-78.87-31.19-158.04-111.01-172.29c-57.16-10.2-103.95,9.23-139.87,54.91
		c-0.57,0.72-1.06,1.51-1.64,2.22c-1.42,1.72-3.18,2.35-5.1,1c-2.03-1.43-2.25-3.46-0.77-5.36c3.89-4.99,7.62-10.18,11.95-14.76
		c32.66-34.52,72.84-50.84,120.17-47.73c68.15,4.48,124.02,55.65,135.55,123.33C397.4,233.22,397.88,241.72,398.8,250.15z"/>
	<path class="st0" d="M130.89,178.82c-6.16,0.2-10.37-2.55-11.4-7.39c-1.42-6.67-2.42-13.45-3.41-20.2c-0.3-2.02,0.81-3.61,3-3.92
		c2.27-0.32,3.78,0.74,4.18,3.03c1.02,5.83,2.07,11.65,2.88,17.51c0.42,3.08,1.93,3.98,4.79,3.5c5.62-0.94,11.27-1.78,16.89-2.7
		c2.46-0.4,4.36,0.22,4.82,2.88c0.42,2.44-0.9,3.87-3.3,4.27C142.81,176.88,136.27,177.94,130.89,178.82z"/>
	<path class="st0" d="M124.68,316.09c-1.12,1.15-1.96,2.74-3.11,3.01c-1.19,0.28-3.42-0.31-3.92-1.23c-2.2-4.01-4.12-8.2-5.71-12.49
		c-0.36-0.96,0.69-3.12,1.69-3.71c0.99-0.58,3.6-0.38,4.01,0.33C120.13,306.4,122.21,311.04,124.68,316.09z"/>
	<path class="st0" d="M126.57,322.32c1.18,0.89,2.34,1.42,3,2.32c2.29,3.13,4.42,6.38,6.59,9.6c1.34,1.99,1.3,3.97-0.75,5.36
		c-2.03,1.38-3.92,0.73-5.29-1.23c-2.22-3.19-4.53-6.32-6.46-9.68c-0.63-1.1-0.55-2.95-0.11-4.22
		C123.85,323.6,125.35,323.14,126.57,322.32z"/>
	<path class="st0" d="M153.63,355.46c-0.75,0.93-1.36,2.39-2.35,2.73c-1.15,0.4-3.08,0.3-3.89-0.44c-3.22-2.94-6.21-6.14-9.12-9.4
		c-1.42-1.59-1.26-3.77,0.51-4.79c1.19-0.69,3.67-0.83,4.57-0.05c3.29,2.84,6.2,6.14,9.17,9.34
		C153.02,353.4,153.15,354.3,153.63,355.46z"/>
	<path class="st0" d="M109.63,269.41c-0.09,1.53-1.01,3.13-3.36,3.3c-2.3,0.17-3.67-1.09-3.93-3.36c-0.44-3.85-0.81-7.71-1.12-11.57
		c-0.2-2.5,0.89-4.29,3.51-4.43c2.45-0.13,3.62,1.39,3.81,3.82C108.84,261.04,109.23,264.89,109.63,269.41z"/>
	<path class="st0" d="M172.25,369.71c0.09,3.42-2.82,5.38-5.29,3.79c-3.68-2.35-7.15-5.06-10.57-7.78
		c-1.54-1.22-1.72-3.02-0.54-4.67c1.25-1.75,3.1-2.22,4.83-1.05c3.54,2.4,6.95,4.99,10.31,7.63
		C171.71,368.2,172.01,369.29,172.25,369.71z"/>
	<path class="st0" d="M110.25,296.66c-0.51-0.48-1.98-1.22-2.34-2.32c-1.32-4.05-2.36-8.2-3.33-12.35c-0.49-2.09,0.61-3.64,2.61-4.2
		c2.07-0.58,3.71,0.38,4.31,2.38c1.19,3.99,2.29,8.02,3.18,12.08C115.26,294.91,113.57,296.78,110.25,296.66z"/>
</g>
</svg>
