<svg xmlns="http://www.w3.org/2000/svg" xmlns:xlink="http://www.w3.org/1999/xlink" version="1.1" id="Layer_1" x="0px" y="0px" style="enable-background:new 0 0 800 800;" xml:space="preserve" viewBox="100 235 600 330">
<style type="text/css">
	.st0{fill:#211D20;}
	.st1{fill:#FFFFFF;}
</style>
<g>
	<rect x="100" y="235" class="st0" width="600" height="330"/>
	<g>
		<path class="st1" d="M282.81,347.74c-0.32,0.73-0.68,1.44-0.95,2.19c-4.81,13.03-9.62,26.05-14.37,39.1    c-0.52,1.44-1.19,2.07-2.79,2.01c-3.3-0.12-6.61-0.12-9.92,0c-1.56,0.05-2.29-0.47-2.83-1.95c-4.76-13.12-9.6-26.21-14.42-39.3    c-0.27-0.73-0.65-1.42-0.98-2.13c-0.19,0.03-0.38,0.06-0.57,0.09c0,0.7,0,1.41,0,2.11c0,12.95-0.03,25.89,0.04,38.84    c0.01,1.79-0.45,2.42-2.31,2.35c-3.78-0.14-7.58-0.08-11.36-0.02c-1.33,0.02-1.83-0.41-1.83-1.77c0.03-19,0.03-38.01,0-57.01    c0-1.31,0.45-1.86,1.79-1.86c7.23,0.03,14.47,0.04,21.7-0.01c1.51-0.01,1.96,0.85,2.39,2.04c4.03,11.19,8.1,22.36,12.17,33.53    c0.32,0.88,0.72,1.73,1.32,3.16c0.68-1.72,1.18-2.88,1.61-4.07c3.92-10.86,7.87-21.72,11.71-32.61c0.56-1.59,1.37-2.09,3-2.07    c6.75,0.08,13.5,0.09,20.25,0c1.93-0.03,2.43,0.65,2.43,2.51c-0.06,18.59-0.06,37.18,0.01,55.78c0.01,1.95-0.61,2.47-2.48,2.4    c-3.65-0.13-7.3-0.12-10.95,0c-1.69,0.05-2.09-0.56-2.08-2.15c0.05-12.88,0.03-25.75,0.03-38.63c0-0.81,0-1.61,0-2.42    C283.23,347.8,283.02,347.77,282.81,347.74z"/>
		<path class="st1" d="M602.35,352.97c0,0.81,0,1.62,0,2.44c0,11.09-0.04,22.18,0.04,33.27c0.01,1.77-0.41,2.44-2.29,2.37    c-3.85-0.14-7.72-0.1-11.58-0.01c-1.56,0.04-1.99-0.51-1.99-2.03c0.04-18.81,0.04-37.61,0-56.42c0-1.55,0.37-2.25,2.06-2.23    c5.51,0.07,11.03,0.07,16.54,0c1.49-0.02,2.21,0.74,2.93,1.83c7.28,10.96,14.58,21.89,21.89,32.83c0.49,0.73,1.03,1.42,2.05,2.1    c0.1-0.88,0.29-1.76,0.29-2.64c0.02-10.47,0.06-20.94-0.03-31.41c-0.02-2.06,0.56-2.82,2.68-2.73c3.58,0.15,7.17,0.09,10.75,0.02    c1.55-0.03,2.18,0.43,2.17,2.12c-0.05,18.87-0.05,37.75-0.01,56.62c0,1.42-0.42,1.94-1.88,1.92c-5.17-0.07-10.34-0.07-15.5,0    c-1.42,0.02-2.25-0.48-3.02-1.65c-7.54-11.44-15.13-22.85-22.71-34.26c-0.55-0.83-1.19-1.59-1.79-2.39    C602.75,352.81,602.55,352.89,602.35,352.97z"/>
		<path class="st1" d="M414.67,369.07c6.84,7.47,13.32,14.55,20.06,21.91c-6.5,0-12.6,0.05-18.71-0.07    c-0.7-0.01-1.48-0.89-2.04-1.52c-5.36-6.1-10.68-12.24-16.02-18.36c-1.14-1.3-5.66-2.24-7.02-1.31c-0.46,0.32-0.66,1.29-0.67,1.96    c-0.05,5.64-0.11,11.29,0.01,16.93c0.04,1.91-0.53,2.51-2.44,2.43c-3.78-0.14-7.58-0.09-11.36-0.02c-1.45,0.03-2.09-0.3-2.08-1.93    c0.05-18.93,0.04-37.86,0.01-56.79c0-1.46,0.53-1.94,1.93-1.93c12.26,0.09,24.52-0.05,36.77,0.25    c9.32,0.23,16.88,7.44,18.02,16.57c1.2,9.59-4.59,18.41-13.81,21.06C416.6,368.45,415.91,368.69,414.67,369.07z M400.24,356.6    c0-0.01,0-0.02,0-0.04c2.89,0,5.78,0.01,8.68-0.01c0.47,0,0.94-0.19,1.4-0.31c3.46-0.86,5.22-3.15,5.02-6.52    c-0.18-3-2.49-5.61-5.73-5.76c-5.91-0.29-11.83-0.26-17.74-0.36c-1.08-0.02-1.64,0.46-1.63,1.62c0.03,3.23,0.03,6.47,0,9.7    c-0.01,1.24,0.52,1.71,1.74,1.7C394.73,356.57,397.48,356.6,400.24,356.6z"/>
		<path class="st1" d="M457.01,447.86c6.69,7.3,13.08,14.28,19.71,21.51c-0.84,0.12-1.35,0.25-1.85,0.26    c-5.17,0.02-10.33,0.08-15.5-0.05c-1.02-0.03-2.3-0.6-2.97-1.35c-5-5.59-10.1-11.12-14.69-17.04c-2.31-2.98-5.04-2.88-8.02-2.63    c-0.42,0.03-1.05,1.28-1.06,1.97c-0.09,5.37-0.05,10.74-0.06,16.11c0,3-0.01,3-2.92,3c-3.58,0-7.16-0.06-10.74,0.02    c-1.55,0.04-2.01-0.56-2-2.06c0.03-18.86,0.03-37.73-0.01-56.59c0-1.39,0.41-1.94,1.89-1.93c11.57,0.05,23.15-0.19,34.71,0.11    c8.65,0.23,16.08,4.23,18.86,12.5c3.48,10.32-0.85,21.54-12.46,25.2C459.13,447.13,458.36,447.4,457.01,447.86z M442.61,422.24    c0,0.06-0.01,0.13-0.01,0.19c-2.69,0-5.37,0.07-8.06-0.03c-1.46-0.05-1.97,0.57-1.96,1.93c0.02,3.03,0.03,6.06-0.01,9.09    c-0.02,1.4,0.55,1.99,1.96,1.96c5.71-0.1,11.43-0.06,17.13-0.26c3.34-0.12,5.65-2.36,5.88-5.26c0.3-3.78-1.26-6.35-4.88-6.95    C449.37,422.35,445.97,422.43,442.61,422.24z"/>
		<path class="st1" d="M311.99,360.82c0-9.37,0.04-18.73-0.04-28.1c-0.02-1.82,0.54-2.37,2.35-2.37c15.57,0.06,31.14,0.06,46.71,0    c1.79-0.01,2.44,0.52,2.36,2.36c-0.14,2.89-0.13,5.79,0,8.67c0.08,1.77-0.59,2.22-2.26,2.21c-10.06-0.06-20.12-0.03-30.18-0.03    c-3.13,0-3.13,0.01-3.14,3.21c0,1.65,0.11,3.31-0.03,4.96c-0.16,1.91,0.73,2.34,2.44,2.31c4.96-0.07,9.92-0.02,14.88-0.02    c5.1,0,10.2,0.04,15.3-0.02c1.57-0.02,2.23,0.41,2.15,2.11c-0.13,2.96-0.13,5.93,0,8.88c0.08,1.76-0.58,2.26-2.25,2.25    c-9.44-0.05-18.88-0.02-28.32-0.03c-5.12,0-4.06,0.04-4.16,4.05c-0.04,1.45,0.08,2.9-0.03,4.34c-0.13,1.67,0.59,2.11,2.17,2.1    c10.27-0.05,20.53,0.03,30.8-0.08c2.12-0.02,2.76,0.57,2.64,2.66c-0.18,2.95-0.09,5.92-0.03,8.88c0.03,1.29-0.33,1.85-1.74,1.85    c-15.98-0.04-31.97-0.04-47.95,0c-1.68,0-1.68-0.9-1.68-2.11C312,379.55,311.99,370.19,311.99,360.82z"/>
		<path class="st1" d="M482.75,439.3c0-9.3,0.05-18.6-0.04-27.89c-0.02-1.81,0.49-2.35,2.32-2.34c15.5,0.07,31.01,0.07,46.51,0    c1.8-0.01,2.46,0.5,2.38,2.33c-0.12,2.82-0.13,5.65,0,8.47c0.09,1.95-0.5,2.62-2.54,2.6c-10.13-0.1-20.26-0.01-30.38-0.08    c-1.82-0.01-2.66,0.4-2.48,2.4c0.17,1.78,0.16,3.59,0,5.37c-0.17,1.96,0.44,2.59,2.48,2.57c9.78-0.11,19.57,0.01,29.35-0.1    c2.1-0.02,2.81,0.54,2.67,2.65c-0.17,2.67-0.04,5.37-0.04,8.06c-0.01,2.67-0.01,2.67-2.77,2.67c-9.72,0-19.43,0.05-29.14-0.04    c-2-0.02-2.71,0.58-2.54,2.57c0.15,1.85,0.16,3.73,0,5.57c-0.16,1.86,0.6,2.38,2.34,2.37c9.03-0.05,18.05-0.02,27.08-0.02    c1.38,0,2.76,0.03,4.13,0c1.16-0.02,1.82,0.4,1.81,1.67c-0.02,3.31-0.03,6.61,0,9.92c0.01,1.5-0.91,1.61-2.05,1.6    c-4.2-0.02-8.41-0.01-12.61-0.01c-11.3,0-22.6-0.06-33.9,0.05c-2.14,0.02-2.65-0.65-2.63-2.7    C482.81,457.75,482.75,448.52,482.75,439.3z"/>
		<path class="st1" d="M236.36,432.67c1.22,0,2.17,0,3.12,0c9.71,0,19.42,0.03,29.14-0.03c1.58-0.01,2.23,0.38,2.16,2.07    c-0.12,3.02-0.12,6.06,0,9.09c0.07,1.71-0.49,2.25-2.21,2.24c-9.85-0.07-19.7,0.02-29.55-0.08c-2.02-0.02-2.91,0.44-2.69,2.62    c0.19,1.84,0.17,3.73,0,5.57c-0.17,1.91,0.69,2.35,2.38,2.32c3.72-0.07,7.44-0.02,11.16-0.02c6.47,0,12.95,0.05,19.42-0.03    c1.82-0.02,2.42,0.58,2.34,2.39c-0.13,2.96-0.08,5.92-0.01,8.88c0.03,1.39-0.39,1.97-1.87,1.97c-15.77-0.04-31.55-0.03-47.32,0    c-1.44,0-1.9-0.52-1.9-1.94c0.03-18.93,0.03-37.87,0-56.8c0-1.3,0.38-1.83,1.76-1.83c15.84,0.04,31.69,0.04,47.53,0    c1.36,0,1.82,0.48,1.79,1.8c-0.06,3.17-0.1,6.34,0.02,9.5c0.06,1.71-0.61,2.07-2.18,2.07c-10.19-0.06-20.39,0.02-30.58-0.07    c-1.98-0.02-2.68,0.52-2.55,2.53C236.48,427.37,236.36,429.85,236.36,432.67z"/>
		<path class="st1" d="M142.36,390.99c2.61-5.91,5.03-11.38,7.44-16.85c6.11-13.84,12.25-27.68,18.31-41.55    c0.7-1.61,1.54-2.29,3.36-2.25c5.51,0.12,11.02,0.07,16.54,0.03c1.23-0.01,2.01,0.29,2.56,1.53c8.5,19.33,17.05,38.65,25.58,57.97    c0.11,0.24,0.13,0.51,0.29,1.13c-1.61,0-3.09,0-4.57,0c-3.65,0-7.31-0.08-10.95,0.04c-1.59,0.05-2.35-0.55-2.89-1.97    c-1.14-2.95-2.47-5.83-3.63-8.77c-0.5-1.28-1.25-1.74-2.64-1.73c-8.34,0.06-16.67,0.06-25.01,0c-1.41-0.01-2.13,0.49-2.63,1.75    c-1.22,3.07-2.47,6.13-3.82,9.14c-0.28,0.63-1.07,1.46-1.64,1.47C153.36,391.04,148.07,390.99,142.36,390.99z M188.2,365.54    c-2.96-7.06-5.8-13.81-8.63-20.56c-0.24,0.01-0.47,0.03-0.71,0.04c-2.82,6.75-5.65,13.51-8.58,20.52    C176.48,365.54,182.08,365.54,188.2,365.54z"/>
		<path class="st1" d="M582.66,390.99c-5.69,0-11.12,0.04-16.55-0.07c-0.56-0.01-1.33-0.85-1.62-1.48c-1.38-3-2.66-6.04-3.89-9.11    c-0.5-1.25-1.2-1.78-2.61-1.77c-8.4,0.06-16.81,0.06-25.21,0c-1.32-0.01-1.99,0.48-2.46,1.67c-1.18,3.01-2.51,5.96-3.66,8.98    c-0.52,1.37-1.3,1.84-2.78,1.82c-4.94-0.09-9.88-0.03-15.24-0.03c0.77-1.83,1.37-3.32,2.01-4.79    c7.77-17.62,15.59-35.21,23.28-52.86c0.96-2.19,2.08-3.13,4.57-3.02c5.23,0.21,10.47,0.09,15.7,0.05    c1.23-0.01,2.01,0.33,2.56,1.56c8.49,19.33,17.03,38.64,25.55,57.95C582.43,390.13,582.48,390.39,582.66,390.99z M536.5,365.51    c6.1,0,11.75,0,17.88,0c-2.94-7.04-5.77-13.78-8.59-20.53c-0.24,0.02-0.48,0.04-0.72,0.05    C542.25,351.76,539.44,358.48,536.5,365.51z"/>
		<path class="st1" d="M656.29,409.1c-2.07,4.49-3.88,8.56-5.86,12.55c-0.24,0.49-1.38,0.73-2.11,0.74    c-8.27,0.05-16.53,0.03-24.8,0.04c-2.41,0-4.57,0.7-5.71,2.99c-1.71,3.42,0.82,7.15,4.94,7.22c4.89,0.09,9.8-0.21,14.67,0.11    c3.52,0.23,7.12,0.79,10.45,1.9c5.14,1.71,8.23,5.63,9.26,10.96c1.48,7.62-0.08,14.38-6.26,19.54c-3.32,2.77-7.29,4.28-11.58,4.35    c-11.3,0.17-22.59,0.09-33.89,0.16c-1.4,0.01-1.98-0.42-1.93-1.9c0.09-3.03,0.11-6.06-0.01-9.09c-0.07-1.75,0.58-2.25,2.26-2.24    c9.44,0.06,18.88,0.04,28.31,0.01c1.23,0,2.49-0.05,3.7-0.27c2.35-0.41,4.07-2.44,4.17-4.73c0.1-2.28-1.28-4.29-3.57-4.98    c-1.04-0.31-2.16-0.44-3.25-0.45c-5.37-0.05-10.76,0.16-16.12-0.1c-5.15-0.25-9.77-1.95-13.35-5.99    c-6.85-7.72-5.55-23.81,6.91-28.69c3.25-1.27,6.92-1.96,10.42-2.05c10.26-0.26,20.53-0.09,30.79-0.1    C654.41,409.1,655.08,409.1,656.29,409.1z"/>
		<path class="st1" d="M596.17,409.1c-2.02,4.4-3.8,8.41-5.75,12.33c-0.28,0.56-1.44,0.94-2.2,0.94    c-8.06,0.07-16.12,0.04-24.18,0.05c-0.76,0-1.53-0.02-2.26,0.12c-3.12,0.6-4.77,2.72-4.5,5.65c0.24,2.56,2.37,4.41,5.33,4.45    c4.82,0.06,9.65-0.17,14.46,0.09c3.33,0.18,6.76,0.54,9.91,1.57c5.75,1.88,9.24,6.1,10.17,12.14c1.35,8.75-1.59,17.19-10.35,21.04    c-2.64,1.16-5.66,1.94-8.53,2c-10.95,0.25-21.9,0.11-32.85,0.17c-1.51,0.01-2.1-0.52-2.06-2.04c0.07-2.82,0.13-5.65-0.02-8.47    c-0.11-2.06,0.56-2.76,2.68-2.74c9.16,0.1,18.32,0.05,27.48,0.03c1.3,0,2.62-0.06,3.91-0.24c2.44-0.34,4.04-2.07,4.19-4.38    c0.17-2.71-1.04-4.67-3.5-5.37c-1.04-0.3-2.16-0.42-3.25-0.43c-5.37-0.05-10.75,0.15-16.12-0.1c-4.85-0.22-9.24-1.84-12.78-5.43    c-7.27-7.37-6.95-25.32,8.46-30.06c2.72-0.84,5.66-1.23,8.51-1.27c10.33-0.15,20.66-0.06,31-0.06    C594.51,409.1,595.12,409.1,596.17,409.1z"/>
		<path class="st1" d="M349.05,469.64c-3.07,0-5.52,0-7.98,0c-3.51,0-7.03-0.05-10.54,0.02c-1.36,0.03-2.28-0.42-3.17-1.48    c-4.53-5.37-9.14-10.67-13.72-15.99c-0.49-0.57-0.97-1.16-1.61-1.92c-0.74,0.7-1.31,1.15-1.78,1.7c-4.59,5.32-9.19,10.63-13.71,16    c-0.97,1.15-1.95,1.72-3.5,1.7c-5.78-0.08-11.55-0.03-17.87-0.03c2.51-2.85,4.7-5.35,6.9-7.84c6.25-7.06,12.48-14.15,18.8-21.16    c1.06-1.18,1.07-1.92,0.03-3.08c-7.41-8.25-14.76-16.55-22.13-24.83c-0.95-1.07-1.88-2.16-3.15-3.62c2.66,0,4.89,0,7.13,0    c3.72,0,7.44,0.07,11.16-0.04c1.54-0.05,2.57,0.48,3.54,1.62c4.36,5.15,8.83,10.21,13.16,15.38c1.16,1.38,1.89,1.37,3.02,0.03    c4.5-5.3,9.05-10.56,13.65-15.78c0.52-0.59,1.45-1.16,2.2-1.17c5.86-0.09,11.71-0.05,17.57-0.04c0.18,0,0.36,0.1,0.84,0.25    c-1.91,2.17-3.7,4.22-5.51,6.26c-6.35,7.16-12.67,14.35-19.11,21.43c-1.25,1.37-1.04,2.19,0.05,3.42    c7.88,8.84,15.71,17.73,23.55,26.61C347.45,467.75,348.02,468.43,349.05,469.64z"/>
		<path class="st1" d="M352.09,439.43c0-9.29,0.04-18.58-0.04-27.87c-0.02-1.82,0.36-2.51,2.37-2.49    c11.43,0.1,22.86-0.13,34.29,0.11c10.06,0.21,17.58,5.56,19.89,14.81c3.39,13.55-5.9,25.59-19.89,25.72    c-6.2,0.06-12.39,0.06-18.59-0.01c-1.67-0.02-2.3,0.48-2.27,2.22c0.09,5.23-0.01,10.46,0.06,15.69c0.02,1.51-0.44,2.08-1.99,2.05    c-3.92-0.08-7.85-0.09-11.77,0c-1.64,0.04-2.11-0.54-2.1-2.16C352.12,458.15,352.09,448.79,352.09,439.43z M378.18,436.39    c2.61,0,5.23,0.02,7.84,0c4.43-0.04,7.3-2.6,7.4-6.6c0.11-4.22-2.73-7.22-7.2-7.31c-5.5-0.11-11-0.01-16.5-0.05    c-1.29-0.01-1.87,0.38-1.84,1.76c0.06,3.5,0.07,7.01,0,10.52c-0.03,1.42,0.58,1.75,1.85,1.72    C372.54,436.35,375.36,436.39,378.18,436.39z"/>
		<path class="st1" d="M506.55,377.66c-2.1,4.43-3.93,8.35-5.84,12.24c-0.23,0.47-0.86,1.03-1.33,1.05    c-6.79,0.27-13.5-0.09-19.7-3.32c-8.18-4.26-12.38-11.33-13.8-20.14c-1.07-6.66-0.75-13.32,1.71-19.7    c3.73-9.67,10.98-15.46,21.07-16.64c8.23-0.97,16.63-0.57,24.96-0.67c0.48-0.01,1.38,0.92,1.4,1.44    c0.13,3.51,0.02,7.02,0.09,10.54c0.03,1.53-0.88,1.63-2.01,1.62c-4.62-0.01-9.24-0.08-13.85,0.03c-2.39,0.05-4.84,0.18-7.16,0.7    c-5.38,1.2-8.78,4.61-10.18,9.96c-1.02,3.88-0.99,7.78-0.08,11.65c1.67,7.07,6.85,10.98,14.85,11.23    C499.81,377.74,502.96,377.66,506.55,377.66z"/>
		<path class="st1" d="M440.48,360.79c0-9.29,0.05-18.59-0.04-27.88c-0.02-2.02,0.67-2.63,2.62-2.56c3.58,0.13,7.16,0.09,10.74,0.01    c1.64-0.04,2.33,0.45,2.33,2.22c-0.05,18.8-0.04,37.59-0.01,56.39c0,1.47-0.4,2.1-1.99,2.06c-3.85-0.09-7.72-0.11-11.57,0.01    c-1.69,0.05-2.11-0.59-2.1-2.15C440.5,379.52,440.48,370.16,440.48,360.79z"/>
	</g>
</g>
</svg>