<svg xmlns="http://www.w3.org/2000/svg" xmlns:xlink="http://www.w3.org/1999/xlink" version="1.1" id="Layer_1" x="0px" y="0px" style="enable-background:new 0 0 800 800;" xml:space="preserve" viewBox="100 235 600 330">
<style type="text/css">
	.st0{fill:#211D20;}
	.st1{fill:#FFFFFF;}
</style>
<g>
	<rect x="100" y="235" class="st0" width="600" height="330"/>
	<g>
		<path class="st1" d="M389.71,302.78c-8.36,30.4-16.66,60.6-25.03,91.06c-0.4-0.43-0.67-0.68-0.88-0.95    c-23.79-30.53-47.57-61.05-71.35-91.58c-2.45-3.14-4.9-6.27-7.32-9.43c-0.24-0.31-0.45-0.93-0.3-1.17    c0.16-0.27,0.78-0.41,1.17-0.36c5.54,0.63,11.07,1.3,16.6,1.96c6.23,0.75,12.46,1.5,18.69,2.25c6.77,0.81,13.54,1.62,20.31,2.43    c6.85,0.82,13.7,1.65,20.55,2.48c7.55,0.91,15.09,1.82,22.64,2.73C386.36,302.37,387.94,302.56,389.71,302.78z"/>
		<path class="st1" d="M393.81,302.88c0.45,0.58,0.7,0.87,0.92,1.17c24.97,34.85,49.93,69.71,74.89,104.57    c0.22,0.31,0.56,0.68,0.54,1c-0.04,0.75-0.57,0.87-1.26,0.76c-4.47-0.72-8.94-1.41-13.41-2.11c-19.19-3.02-38.38-6.04-57.56-9.06    c-9.4-1.48-18.8-2.96-28.21-4.44c-0.33-0.05-0.66-0.16-1.13-0.27C376.99,364,385.36,333.61,393.81,302.88z"/>
		<path class="st1" d="M382.2,457.4c-4.48-19.61-8.92-39.01-13.4-58.63c1.31,0.19,2.41,0.34,3.51,0.51    c30.66,4.9,61.32,9.81,91.98,14.72c0.19,0.03,0.42,0.01,0.57,0.11c0.35,0.23,0.8,0.46,0.92,0.79c0.07,0.2-0.34,0.72-0.65,0.88    c-2.39,1.25-4.8,2.44-7.2,3.65c-23.08,11.56-46.16,23.12-69.25,34.69C386.6,455.17,384.52,456.23,382.2,457.4z"/>
		<path class="st1" d="M364.44,398.75c0.37,0.96,0.88,1.88,1.1,2.87c4.95,22.16,9.87,44.34,14.82,66.5c0.5,2.25-0.12,3.92-1.89,5.36    c-14.26,11.59-28.5,23.21-42.75,34.81c-0.51,0.42-1.03,0.84-1.6,1.18c-0.29,0.17-0.8,0.28-1.02,0.14c-0.2-0.14-0.27-0.69-0.18-1    c1.04-3.8,2.12-7.58,3.2-11.37c9.2-32.44,18.41-64.88,27.61-97.31c0.1-0.37,0.23-0.73,0.34-1.1    C364.19,398.8,364.32,398.78,364.44,398.75z"/>
		<path class="st1" d="M494.57,357.86c-6.46,17.64-12.81,34.96-19.27,52.59C464.82,395.9,454.49,381.56,444,367    C460.93,363.94,477.61,360.93,494.57,357.86z"/>
		<path class="st1" d="M395.47,454.94c2.33-1.19,4.54-2.33,6.75-3.46c22.48-11.46,44.96-22.93,67.45-34.37    c0.33-0.17,0.89-0.26,1.13-0.09c0.21,0.16,0.25,0.76,0.15,1.1c-0.71,2.27-1.54,4.5-2.21,6.78c-0.41,1.39-1.3,2.13-2.57,2.64    c-7.31,2.93-14.61,5.88-21.92,8.82c-15.65,6.3-31.31,12.61-46.97,18.9C396.74,455.46,396.09,456.01,395.47,454.94z"/>
		<path class="st1" d="M497.73,359.36c1.82,1.7,3.5,3.25,5.16,4.82c4.97,4.67,9.95,9.34,14.9,14.04c0.31,0.3,0.42,0.81,0.63,1.22    c-0.42,0.19-0.83,0.54-1.25,0.54c-8.58,0.03-17.16,0.03-25.74,0.02c-0.34,0-0.67-0.06-1.23-0.11    C492.72,373.02,495.19,366.29,497.73,359.36z"/>
		<path class="st1" d="M287.47,308.19c1.4,0,2.81,0.06,4.21-0.02c1.24-0.07,2.05,0.52,2.76,1.44c3.85,4.96,7.73,9.9,11.59,14.86    c5.87,7.54,11.74,15.09,17.6,22.64c0.31,0.4,0.64,0.8,0.84,1.26c0.11,0.25-0.03,0.62-0.05,0.93c-0.3-0.08-0.68-0.07-0.88-0.26    c-1.86-1.72-3.69-3.47-5.54-5.22c-11.9-11.26-23.79-22.53-35.67-33.81c-0.36-0.35-0.51-0.93-0.75-1.4    c0.52-0.16,1.03-0.42,1.56-0.44c1.44-0.06,2.89-0.02,4.33-0.02C287.47,308.16,287.47,308.18,287.47,308.19z"/>
	</g>
</g>
</svg>