<svg xmlns="http://www.w3.org/2000/svg" xmlns:xlink="http://www.w3.org/1999/xlink" version="1.1" id="Layer_1" x="0px" y="0px" style="enable-background:new 0 0 800 800;" xml:space="preserve" viewBox="250 207.92 300.01 367.09">
<style type="text/css">
	.st0{fill:#010101;}
</style>
<path class="st0" d="M329.96,270.35c5.65-30.16,22.03-50.98,51.49-59.4c28.3-8.09,52.94,0.22,71.68,22.25  c7.3,8.58,11.26,20.34,15.37,31.17c1.99,5.24,2.98,8.12,9.45,7.55c9.49-0.83,19.11-0.37,28.67-0.39  c13.65-0.02,22.9,8.26,23.98,22.11c5.06,65.05,9.96,130.11,14.94,195.17c1.46,19.11,3.46,38.2,4.4,57.33  c0.97,19.62-8.12,28.82-27.5,28.83c-81.15,0.05-162.3,0.05-243.45-0.02c-21.7-0.02-30.4-10.43-28.8-31.99  c4.26-57.36,8.04-114.75,11.94-172.13c1.72-25.37,3.14-50.77,4.96-76.14c1.02-14.13,10.49-22.82,24.65-23.07  c11.8-0.21,23.6-0.18,35.4-0.31C327.82,271.32,328.49,270.87,329.96,270.35z M329.65,286.59c-1.73-0.8-2.37-1.35-3.02-1.36  c-9.22-0.13-18.44-0.23-27.66-0.24c-15.51-0.02-17.22,1.32-18.34,16.61c-3.06,41.56-6.03,83.13-8.8,124.71  c-2.69,40.46-4.99,80.94-7.67,121.4c-0.63,9.52,3.35,13.52,12.75,13.51c82.27-0.08,164.54,0,246.81-0.09  c10.16-0.01,13.43-4.33,12.61-14.72c-2.83-36.01-5.64-72.02-8.29-108.04c-3.43-46.7-6.44-93.44-10.39-140.1  c-0.39-4.58-5.54-11.74-9.45-12.47c-10.35-1.91-21.25-1.34-31.88-0.8c-2.28,0.12-6.38,4.5-6.17,6.57c0.85,8.3-1.52,16.96,6.39,24.47  c6.11,5.8,4.34,14.59-2.64,20.5c-6.47,5.47-13.48,5.57-20.18,0.23c-6.92-5.51-8.45-14.69-3.41-19.6  c10.36-10.1,5.85-20.58,5.99-31.64c-38.07,0-74.81,0-112.5,0c0.03,11.16-3.78,21.57,5.9,31.2c6.4,6.37,3.75,14.82-2.96,20.46  c-6.32,5.3-13.65,5.61-20.22,0.08c-7.01-5.89-8.73-14.63-2.8-20.57C333.45,306.97,328.82,296.55,329.65,286.59z M455.34,271.03  c-1.6-27.93-27.67-49.54-58.06-48.7c-27.1,0.74-51.74,23.69-51.86,48.7C382.05,271.03,418.67,271.03,455.34,271.03z"/>
</svg>