<svg xmlns="http://www.w3.org/2000/svg" xmlns:xlink="http://www.w3.org/1999/xlink" version="1.1" id="Layer_1" x="0px" y="0px" style="enable-background:new 0 0 800 800;" xml:space="preserve" viewBox="100 229.45 600 330">
<style type="text/css">
	.st0{fill:#211D20;}
	.st1{fill:#FFFFFF;}
</style>
<g>
	<rect x="100" y="229.45" class="st0" width="600" height="330"/>
	<g>
		<path class="st1" d="M167.43,397.42c0-42.98,33-73.74,77.42-73.74c24.64,0,45.22,8.96,58.67,25.25l-21.2,19.56    c-9.57-11-21.59-16.7-35.84-16.7c-26.69,0-45.63,18.74-45.63,45.63c0,26.88,18.94,45.63,45.63,45.63    c14.25,0,26.28-5.71,35.84-16.9l21.2,19.56c-13.45,16.49-34.03,25.46-58.87,25.46C200.43,471.16,167.43,440.4,167.43,397.42z"/>
		<path class="st1" d="M313.62,397.42c0-42.38,33-73.74,78.02-73.74c44.82,0,78.03,31.16,78.03,73.74    c0,42.57-33.21,73.74-78.03,73.74C346.62,471.16,313.62,439.79,313.62,397.42z M436.25,397.42c0-27.1-19.15-45.63-44.62-45.63    c-25.46,0-44.6,18.53-44.6,45.63c0,27.08,19.15,45.63,44.6,45.63C417.11,443.05,436.25,424.51,436.25,397.42z"/>
		<path class="st1" d="M494.42,326.13h64.78c46.66,0,78.63,28.11,78.63,71.29s-31.98,71.29-78.63,71.29h-64.78V326.13z     M557.57,441.62c28.32,0,46.86-16.9,46.86-44.19c0-27.3-18.54-44.21-46.86-44.21h-30.15v88.4H557.57z"/>
	</g>
</g>
</svg>