<svg xmlns="http://www.w3.org/2000/svg" xmlns:xlink="http://www.w3.org/1999/xlink" version="1.1" id="Layer_1" x="0px" y="0px" style="enable-background:new 0 0 800 800;" xml:space="preserve" viewBox="200.08 243.68 399.99 357.08">
<g>
	<path d="M399.76,600.76c-24.98-31.97-49.62-63.47-74.24-95c-40-51.22-79.8-102.59-120.16-153.53c-6.51-8.22-7.26-14.01-0.8-22.65   c11.29-15.12,20.47-31.83,32.02-46.73c5.16-6.66,13.19-12.67,21.14-15.33c24.02-8.01,48.59-14.4,73.05-21.04   c5.68-1.54,11.76-2.1,17.67-2.16c12.9-0.13,25.89,1.4,38.7,0.41c55.19-4.3,108.31,4.73,159.91,23.73   c5.97,2.2,12.23,6.45,15.91,11.52c12.46,17.14,24.23,34.82,35.26,52.9c2.32,3.8,2.59,11.9,0.08,15.14   c-64.82,83.87-130.14,167.36-195.39,250.9C402.66,599.26,402.14,599.39,399.76,600.76z M400.85,584.03   c33.76-67.12,66.07-131.37,99.06-196.97c-66.97,0-131.68,0-198.48,0C334.63,452.81,367.05,517.05,400.85,584.03z M301.43,376.3   c67.33,0,131.95,0,198.5,0c-10.84-23.18-20.7-44.89-31.31-66.22c-1.31-2.63-6.59-4.61-10.06-4.65   c-38.25-0.46-76.5-0.62-114.74-0.37c-3.84,0.02-9.68,2.23-11.15,5.16C321.99,331.49,312.2,353.22,301.43,376.3z M265.81,273.99   c64.83,32.99,214.56,30.57,269.32-0.45C444.41,245.42,356.63,244.86,265.81,273.99z M291.53,375.34   c11.4-24.38,22.22-47.51,33.6-71.84c-24.59-7.6-47.39-14.79-70.33-21.54c-2.31-0.68-6.71,0.43-7.96,2.22   c-12.27,17.69-24.09,35.69-36.97,55.01C237.83,351.56,264.15,363.22,291.53,375.34z M552.02,279.83   c-25.45,7.99-49.87,15.66-75.85,23.82c11.57,24.59,22.44,47.69,33.73,71.7c27.65-12.27,53.93-23.93,81.56-36.19   C577.84,318.68,565.4,299.96,552.02,279.83z M223.21,355.14c-0.58,0.73-1.16,1.45-1.74,2.18c48.7,62.42,97.4,124.84,146.1,187.27   c1.2-3.14,0.51-5.15-0.44-7.04c-24.45-48.51-48.9-97.03-73.5-145.47c-1.6-3.15-3.8-6.97-6.73-8.33   C265.83,373.91,244.48,364.61,223.21,355.14z M579.63,357.68c-0.46-0.83-0.93-1.66-1.39-2.5c-18.8,8.29-37.9,15.97-56.23,25.19   c-6.36,3.2-12.55,9.27-15.87,15.58c-18.63,35.44-36.4,71.33-54.38,107.12c-6.58,13.1-12.93,26.31-19.38,39.47   c0.7,0.38,1.41,0.76,2.11,1.14C482.87,481.68,531.25,419.68,579.63,357.68z"/>
</g>
</svg>