<svg xmlns="http://www.w3.org/2000/svg" xmlns:xlink="http://www.w3.org/1999/xlink" version="1.1" id="Layer_1" x="0px" y="0px" style="enable-background:new 0 0 800 800;" xml:space="preserve" viewBox="199.98 157.32 400.01 485.34">
<style type="text/css">
	.st0{fill:#303030;}
</style>
<g>
	<path class="st0" d="M404.12,642.66c26.31,0,53.04-5.13,78.77-15.96c57.32-24.13,99.94-72.3,116.95-132.18   c0.56-1.99-0.46-4.08-2.37-4.86c-1.91-0.78-4.1,0.01-5.09,1.82c-17.03,31.45-43.48,55.42-76.5,69.32   c-79.17,33.32-170.73-3.98-204.06-83.16c-33.33-79.18,3.98-170.71,83.17-204.04c33.02-13.9,68.65-16.06,103.04-6.26   c1.98,0.57,4.08-0.45,4.86-2.36c0.78-1.91,0-4.1-1.82-5.09c-54.71-29.69-118.96-32.87-176.28-8.75   c-50.16,21.11-89.09,60.49-109.63,110.89c-20.54,50.39-20.22,105.77,0.89,155.92C248.82,595.78,324.55,642.67,404.12,642.66z    M222.68,365.1c19.72-48.39,57.11-86.21,105.28-106.48c24.47-10.3,50.25-15.42,75.97-15.42c21.22,0,42.39,3.49,62.73,10.42   c-25.36-1.8-50.73,2.4-74.79,12.53c-83.3,35.06-122.55,131.35-87.49,214.64c26.35,62.6,87.28,100.32,151.29,100.32   c21.16,0,42.67-4.12,63.37-12.84c24.06-10.13,44.8-25.34,61.23-44.73c-20.48,42.88-55.85,76.9-100.52,95.7   c-99.43,41.85-214.37-4.99-256.22-104.42C203.26,466.67,202.95,413.49,222.68,365.1z"/>
	<path class="st0" d="M471.51,368.61c-0.71-1.3-2.07-2.11-3.55-2.11c-1.48,0-2.84,0.81-3.55,2.11l-16.52,30.2l-30.2,16.52   c-1.3,0.71-2.11,2.07-2.11,3.55c0,1.48,0.81,2.84,2.11,3.55l30.2,16.52l16.52,30.2c0.71,1.3,2.07,2.11,3.55,2.11   c1.48,0,2.84-0.81,3.55-2.11l16.52-30.2l30.2-16.52c1.3-0.71,2.1-2.07,2.1-3.55c0-1.48-0.81-2.84-2.1-3.55l-30.2-16.52   L471.51,368.61z M483.1,432.41c-0.68,0.37-1.24,0.93-1.61,1.61l-13.54,24.75l-13.54-24.75c-0.37-0.68-0.93-1.24-1.61-1.61   l-24.75-13.54l24.75-13.53c0.68-0.37,1.24-0.93,1.61-1.61l13.54-24.75l13.54,24.75c0.37,0.68,0.93,1.24,1.61,1.61l24.75,13.53   L483.1,432.41z"/>
	<path class="st0" d="M202.16,197.12l19.77,10.81l10.81,19.77c0.71,1.3,2.07,2.1,3.55,2.1c1.48,0,2.84-0.81,3.55-2.11l10.81-19.77   l19.77-10.81c1.3-0.71,2.11-2.07,2.11-3.55s-0.81-2.84-2.11-3.55l-19.77-10.81l-10.81-19.77c-0.71-1.3-2.07-2.11-3.55-2.11   c-1.48,0-2.84,0.81-3.55,2.11l-10.81,19.77l-19.77,10.81c-1.3,0.71-2.1,2.07-2.1,3.55S200.86,196.41,202.16,197.12z M226.86,185.74   c0.68-0.37,1.24-0.93,1.61-1.61l7.83-14.31l7.83,14.31c0.37,0.68,0.93,1.24,1.61,1.61l14.31,7.83l-14.31,7.83   c-0.68,0.37-1.24,0.93-1.61,1.61l-7.83,14.31l-7.83-14.31c-0.37-0.68-0.93-1.24-1.61-1.61l-14.31-7.83L226.86,185.74z"/>
</g>
</svg>