<svg xmlns="http://www.w3.org/2000/svg" xmlns:xlink="http://www.w3.org/1999/xlink" version="1.1" id="Layer_1" x="0px" y="0px" style="enable-background:new 0 0 800 800;" xml:space="preserve" viewBox="200 200 399.99 400.01">
<style type="text/css">
	.st0{fill:#303030;}
</style>
<path class="st0" d="M392.82,200c4.69,0,9.38,0,14.07,0c0.59,0.23,1.16,0.58,1.77,0.66c20.25,2.89,35.98,12.99,47.15,30.01  c3.17,4.82,5.4,10.26,8.05,15.4c28.4-12.11,55.09-9.47,77.31,12.74c22.3,22.29,24.89,49.09,12.6,77.74  c0.94,0.39,1.65,0.71,2.36,0.99c19.48,7.47,32.91,20.97,39.99,40.58c1.74,4.83,2.6,9.98,3.87,14.98c0,4.69,0,9.38,0,14.07  c-0.21,0.46-0.54,0.9-0.61,1.38c-4.16,26.68-18.98,44.71-44.04,54.49c-0.56,0.22-1.05,0.6-1.55,0.9  c11.66,26.81,9.99,52.3-9.55,74.21c-22.36,25.07-50.19,28.72-80.63,15.99c-11.17,27.95-31.12,44.95-61.51,45.83  c-32.54,0.94-53.97-16.25-66.08-45.83c-28.69,12.22-55.51,9.51-77.76-12.97c-22.01-22.23-24.52-48.85-12.37-77.23  c-28.76-11.57-45.86-32.28-45.89-63.74c-0.03-31.57,17.16-52.34,45.92-63.9c-11.56-26.54-10.02-51.83,9.09-73.65  c22.36-25.54,50.39-29.31,81.29-16.48c0.34-0.81,0.66-1.52,0.94-2.24c7.39-19.37,20.78-32.78,40.21-39.93  C382.4,202.18,387.69,201.31,392.82,200z M399.66,453.45c6.51,0,13.02,0.12,19.53-0.09c1.61-0.05,3.58-0.79,4.72-1.9  c9.22-9,18.33-18.12,27.34-27.34c1.04-1.06,1.82-2.88,1.84-4.36c0.14-13.02,0.15-26.04-0.01-39.06c-0.02-1.59-0.85-3.55-1.97-4.69  c-8.91-9.13-17.93-18.16-27.07-27.05c-1.22-1.19-3.33-2.02-5.04-2.05c-12.76-0.17-25.52-0.17-38.27,0  c-1.71,0.02-3.83,0.86-5.05,2.04c-9.14,8.89-18.16,17.92-27.07,27.05c-1.12,1.14-1.95,3.1-1.97,4.69  c-0.16,12.89-0.17,25.78,0.01,38.66c0.02,1.7,0.92,3.79,2.11,5.02c8.81,9.05,17.73,17.99,26.8,26.78c1.3,1.26,3.53,2.11,5.37,2.18  C387.16,453.62,393.42,453.45,399.66,453.45z M466.52,333.21c1.27,0.13,1.9,0.26,2.53,0.26c22.8,0.07,45.59,0.16,68.39,0.1  c1.08,0,2.57-1.01,3.16-1.99c4.34-7.16,6.63-15.12,6.78-23.37c0.37-20.23-7.52-36.66-24.86-47.48  c-17.42-10.86-35.63-11.08-53.81-1.49c-1.13,0.6-2.25,2.47-2.25,3.76c-0.08,21.75,0.01,43.51,0.06,65.26  C466.52,329.8,466.52,331.33,466.52,333.21z M260.05,333.3c24.39,0,48.56,0,72.8,0c0.15-0.84,0.32-1.34,0.32-1.83  c0.08-23.06,0.17-46.11,0.13-69.17c0-0.98-0.95-2.37-1.85-2.88c-11.45-6.41-23.72-8.62-36.56-5.83  C258.41,261.52,241.33,300.69,260.05,333.3z M466.82,467.05c-0.12,0.83-0.28,1.45-0.28,2.07c-0.07,22.92-0.16,45.84-0.12,68.76  c0,0.99,0.9,2.39,1.78,2.91c7.3,4.33,15.34,6.76,23.74,6.88c19.55,0.29,35.73-7.07,46.52-23.7c11.49-17.72,12.1-36.36,2.19-55.12  c-0.55-1.05-2.27-2.11-3.45-2.11c-22.27-0.07-44.54,0.01-66.81,0.08C469.26,466.81,468.13,466.96,466.82,467.05z M332.95,467.1  c-0.83-0.12-1.45-0.28-2.07-0.28c-22.92-0.07-45.84-0.16-68.76-0.12c-0.99,0-2.39,0.89-2.91,1.78c-4.33,7.3-6.75,15.34-6.88,23.74  c-0.3,19.4,6.97,35.49,23.38,46.3c17.78,11.7,36.53,12.38,55.45,2.41c1.05-0.55,2.11-2.27,2.11-3.44  c0.07-22.27-0.01-44.54-0.08-66.8C333.19,469.54,333.04,468.41,332.95,467.1z M399.6,305.62c0.68-0.45,1.04-0.62,1.3-0.88  c16.45-16.34,32.92-32.67,49.27-49.11c0.74-0.74,1.08-2.71,0.64-3.65c-2.79-5.96-5.07-12.4-8.98-17.56  c-11.72-15.47-27.84-22.67-47.08-20.69c-20.67,2.13-35.38,13.5-43.99,32.42c-3.37,7.4-3.12,7.51,2.83,13.38  c0.83,0.82,1.66,1.66,2.49,2.49C370.52,276.49,384.96,290.96,399.6,305.62z M305.48,400.27c-0.85-0.93-1.34-1.51-1.88-2.06  c-15.98-16.07-31.95-32.16-48.03-48.14c-0.82-0.82-2.8-1.22-3.94-0.86c-19.76,6.17-32.07,19.4-37.15,39.48  c-6.2,24.51,9.05,52.77,32.9,61.21c4.62,1.63,8.26,2.21,11.18-2.66c1.04-1.74,2.87-3,4.35-4.47  C277,428.7,291.1,414.62,305.48,400.27z M494.43,400.08c0.45,0.56,0.72,0.99,1.07,1.35c16.26,16.35,32.5,32.71,48.83,48.99  c0.71,0.71,2.41,1.17,3.29,0.83c4.82-1.9,10-3.4,14.2-6.28c18.56-12.75,27.59-30.48,23.97-52.98  c-3.51-21.82-16.67-36.16-37.85-42.82c-1.11-0.35-3.06,0.2-3.9,1.04c-15.62,15.52-31.12,31.15-46.65,46.76  C496.4,397.94,495.46,398.99,494.43,400.08z M400.55,494.23c-1.17,0.9-1.6,1.17-1.95,1.52c-16.36,16.25-32.72,32.49-48.99,48.84  c-0.75,0.75-1.06,2.57-0.75,3.65c6.48,22.79,27.51,38.7,50.98,38.71c23.49,0.01,44.48-15.85,50.99-38.68  c0.33-1.15-0.15-3.08-0.99-3.92c-14.78-14.88-29.69-29.63-44.53-44.46C403.59,498.16,402.15,496.14,400.55,494.23z M389.74,316  c-14.57-14.57-28.87-28.86-42.91-42.91c0,19.6,0,39.81,0,60.38c8.18,0,16.1,0.04,24.01-0.06c0.9-0.01,1.97-0.64,2.65-1.3  C379.07,326.65,384.58,321.13,389.74,316z M452.8,333.47c0-20.8,0-40.97,0-60.4c-14.12,14.13-28.42,28.44-42.82,42.85  c5.19,5.19,10.69,10.73,16.26,16.19c0.68,0.66,1.76,1.29,2.66,1.3C436.8,333.51,444.72,333.47,452.8,333.47z M333.19,347.19  c-20.79,0-40.96,0-60.46,0c14.16,14.15,28.47,28.45,42.95,42.92c5.17-5.22,10.69-10.74,16.14-16.33c0.66-0.68,1.3-1.75,1.31-2.65  C333.23,363.21,333.19,355.3,333.19,347.19z M527.8,347.1c-20.49,0-40.69,0-61.27,0c0,8.18-0.03,16.09,0.05,24.01  c0.01,0.81,0.46,1.8,1.03,2.39c5.63,5.73,11.32,11.39,16.86,16.92C498.97,375.91,513.23,361.66,527.8,347.1z M272.51,453.21  c19.86,0,40.06,0,60.66,0c0-8.27,0.02-16.31-0.04-24.34c-0.01-0.69-0.45-1.52-0.95-2.03c-5.66-5.72-11.36-11.39-16.64-16.66  C301.06,424.65,286.76,438.96,272.51,453.21z M484.3,410.06c-5.37,5.37-11,10.97-16.58,16.6c-0.52,0.52-1.11,1.29-1.12,1.95  c-0.08,8.16-0.05,16.32-0.05,24.54c20.67,0,40.86,0,60.94,0C513.07,438.76,498.75,424.47,484.3,410.06z M390.02,484.63  c-5.35-5.35-10.86-10.88-16.42-16.36c-0.61-0.61-1.48-1.36-2.24-1.36c-8.16-0.1-16.32-0.06-24.52-0.06c0,20.68,0,40.87,0,60.99  C361.2,513.46,375.43,499.22,390.02,484.63z M452.98,466.81c-8.28,0-16.19-0.02-24.11,0.03c-0.71,0-1.61,0.3-2.1,0.78  c-5.79,5.74-11.52,11.54-16.7,16.74c14.49,14.48,28.78,28.76,42.9,42.87C452.98,507.67,452.98,487.55,452.98,466.81z M407.38,333.28  c-2.66-2.73-5.22-5.35-7.44-7.63c-2.54,2.33-5.22,4.79-8.31,7.63C397.29,333.28,402.37,333.28,407.38,333.28z M332.95,408.21  c0-5.62,0-10.7,0-15.55c-2.63,2.57-5.24,5.12-7.65,7.48C327.61,402.58,330.13,405.23,332.95,408.21z M466.85,392.11  c0,5.62,0,10.71,0,15.26c2.67-2.37,5.44-4.83,7.84-6.97C472.03,397.58,469.56,394.98,466.85,392.11z M392.75,466.99  c2.35,2.78,4.72,5.58,6.21,7.34c3.06-2.46,5.9-4.74,9.14-7.34C402.37,466.99,397.29,466.99,392.75,466.99z M346.84,347.01  c0,3.99,0,7.52,0,10.29c3.47-3.22,7.17-6.66,11.09-10.29C354.14,347.01,350.58,347.01,346.84,347.01z M442.61,346.94  c3.32,3.64,6.72,7.38,10.24,11.24c0-3.87,0-7.52,0-11.24C449.05,346.94,445.57,346.94,442.61,346.94z M357.34,453.21  c-3.44-3.56-6.94-7.18-10.51-10.87c0,3.58,0,7.21,0,10.87C350.66,453.21,354.2,453.21,357.34,453.21z M453.06,442.58  c-3.72,3.52-7.39,6.99-11.18,10.57c3.79,0,7.43,0,11.18,0C453.06,449.36,453.06,445.89,453.06,442.58z"/>
</svg>