<svg xmlns="http://www.w3.org/2000/svg" xmlns:xlink="http://www.w3.org/1999/xlink" version="1.1" id="Layer_1" x="0px" y="0px" style="enable-background:new 0 0 800 800;" xml:space="preserve" viewBox="199.99 215.65 400 368.68">
<g>
	<path d="M540.61,482.95c-0.11,15.43-4.61,29.26-13.27,41.64c-14.45,20.66-34.66,33.24-58.58,39.8c-9.66,2.65-19.81,3.53-29.77,5.04   c-1.79,0.27-2.87,0.49-3.66,2.44c-3.22,7.95-9.36,12.1-17.9,12.33c-7,0.19-14.02,0.18-21.02-0.05c-10.77-0.36-18.71-8.8-18.6-19.45   c0.11-10.41,8.2-18.6,18.84-18.84c7-0.16,14.02-0.16,21.02,0c8.29,0.19,14.03,4.34,17.61,11.78c0.53,1.1,2.03,2.55,3,2.49   c29.38-1.83,55.51-11.26,75.73-33.6c10.43-11.52,16.5-25.09,17.26-40.84c0.11-2.24-0.47-3.26-2.75-4.03   c-10.39-3.53-17.11-12.67-17.17-23.8c-0.15-28.62-0.15-57.25-0.04-85.87c0.05-11.73,7.34-20.56,20.05-24.65   c-1.51-23.03-8.98-43.82-23.52-62.17c-8.61,3.63-15.47,1.12-22.2-4.78c-19.95-17.5-43.76-26.4-69.85-29.17   c-30.48-3.24-59.41,2.03-85.99,17.8c-5.69,3.37-11.15,7.34-16.06,11.75c-6.5,5.84-13.35,7.86-21.75,4.38   c-14.46,18.19-21.85,38.92-23.46,62.13c0.86,0.29,1.59,0.55,2.33,0.79c10.8,3.59,17.77,13.04,17.79,24.5   c0.05,28.27,0.04,56.54-0.04,84.81c-0.04,13-9.18,23.64-21.54,25.38c-13.01,1.83-24.57-5.72-28.28-18.52   c-0.48-1.64-0.87-2.75-3.03-3.18c-18.73-3.75-33-19.52-35.31-38.62c-1.59-13.14,0.82-25.32,8.58-36.18   c6.47-9.06,15.09-15.02,26.13-17.15c2.06-0.4,3.16-1.09,3.77-3.33c2.45-9.07,8.37-15.03,17.34-17.71c2.22-0.66,3-1.63,3.18-3.86   c1.92-23.54,9.77-44.84,24.15-63.69c0.67-0.88,0.93-2.64,0.55-3.69c-2.92-8.09-1.41-14.9,4.97-20.67   c20.59-18.59,44.73-30.27,71.69-36.06c43.97-9.44,86-4.08,125.29,18.29c8.8,5.01,16.77,11.6,24.69,17.99   c6.49,5.24,7.78,12.56,4.95,20.31c-0.41,1.12-0.11,3,0.61,3.95c14.28,18.76,22.12,39.94,24.1,63.35c0.2,2.34,0.95,3.38,3.35,4.11   c8.96,2.71,14.79,8.72,17.28,17.79c0.49,1.79,1.17,2.66,3.14,3.1c19.01,4.2,32.55,18.98,35.2,38.31c1.91,13.92-0.96,26.7-9.6,37.95   c-6.47,8.43-14.98,13.69-25.4,15.91c-1.05,0.22-2.58,1.04-2.81,1.87C558.72,473.86,551.72,480.31,540.61,482.95z M238.04,451.9   c0-1.94-0.11-3.58,0.03-5.21c0.2-2.46,1.66-3.92,4.1-4.15c2.62-0.24,4.31,1.08,4.98,3.6c0.21,0.79,0.18,1.65,0.19,2.47   c0.02,2.61,0.01,5.22,0.01,7.84c0.01,9.91,6.49,17.09,15.57,17.24c9.28,0.16,16.3-6.89,16.34-16.9c0.12-27.9,0.1-55.81,0.04-83.71   c-0.02-9.73-6.99-16.77-16.16-16.69c-9.14,0.08-15.78,7.25-15.78,17.04c0,7.24,0.02,14.49,0.02,21.73c0,9.5,0.02,19-0.06,28.5   c-0.03,3.16-2,5.21-4.67,5.22c-2.68,0.01-4.48-1.99-4.65-5.21c-0.04-0.71-0.01-1.42-0.01-2.14c0.02-13.18,0.04-26.36,0.05-39.54   c0-1.23-0.11-2.46-0.17-3.72c-15.87,2.18-28.16,17.86-28.56,35.94C208.91,432.7,220.74,448.59,238.04,451.9z M561.93,378.42   c0,1.57,0,2.86,0,4.16c0.02,13.06,0.04,26.12,0.05,39.18c0,1.07,0.34,2.42-0.18,3.14c-1.08,1.5-2.6,3.67-3.97,3.69   c-1.63,0.03-3.49-1.72-4.83-3.11c-0.63-0.65-0.35-2.26-0.35-3.44c-0.03-16.5,0.02-33-0.07-49.51   c-0.06-10.03-8.28-17.23-18.06-16.03c-8.19,1-13.85,7.91-13.86,17.12c-0.02,26.59,0.02,53.19,0.04,79.78c0,1.9-0.06,3.81,0.15,5.69   c1.01,8.89,8.06,14.99,16.72,14.56c8.61-0.43,14.96-7.28,15.06-16.27c0.04-3.44-0.13-6.89,0.08-10.33c0.18-2.88,1.87-4.64,4.89-4.5   c2.82,0.14,4.25,1.86,4.36,4.64c0.06,1.49,0.01,2.98,0.01,4.53c16.43-2.16,29.19-19.05,28.68-37.28   C590.12,395.93,577.33,379.62,561.93,378.42z M395.41,224.88c-6.28,0.75-17.21,1.46-27.91,3.45c-27.01,5.03-51.28,16.1-71.86,34.62   c-4.09,3.67-4.66,8.37-1.59,11.92c3.15,3.64,7.92,3.5,12.27-0.17c3.63-3.06,7.26-6.14,11.14-8.86   c21.36-14.95,45.32-22.6,71.15-24.42c30.23-2.13,58.91,3.46,85.16,19.01c7.3,4.32,13.86,9.93,20.66,15.07   c3.71,2.8,8.25,2.73,11.22-0.47c2.96-3.2,2.78-7.87-0.48-11.2c-0.91-0.93-1.91-1.78-2.91-2.62   C472.79,236.16,438.13,225.79,395.41,224.88z M407.21,555.12c-3.43,0-6.87-0.09-10.3,0.02c-5.63,0.19-9.71,4.25-9.84,9.62   c-0.12,5.39,3.76,9.88,9.35,10.09c7.21,0.27,14.44,0.27,21.65,0c5.54-0.21,9.48-4.79,9.32-10.12c-0.16-5.35-4.28-9.41-9.89-9.59   C414.07,555.03,410.64,555.11,407.21,555.12z"/>
	<path d="M397.83,489.19c-5.64-0.99-12.85-2.35-20.1-3.44c-1.7-0.26-3.79-0.1-5.26,0.69c-12.62,6.85-25.13,13.87-37.67,20.88   c-2.25,1.26-4.47,2.44-6.9,0.5c-2.27-1.81-1.78-4.17-1.23-6.54c2.95-12.83,5.85-25.68,8.88-38.49c0.58-2.47,0.4-4.32-1.26-6.49   c-38.29-50.14-9.16-122.58,53.19-132.41c44.61-7.03,87.66,24.38,94.37,68.86c6.91,45.82-24.09,88.4-69.21,94.97   C408.31,488.36,403.92,488.6,397.83,489.19z M337.71,494.94c1.6-0.83,2.65-1.34,3.67-1.91c9.65-5.35,19.33-10.65,28.91-16.11   c2.58-1.47,4.92-1.71,7.76-0.81c11.04,3.49,22.31,4.21,33.78,2.4c40.36-6.36,68.36-46.06,60.59-85.99   c-8.05-41.33-48.28-67.87-88.64-58.47c-53.84,12.55-75.42,76.36-40.2,119.01c2.02,2.45,2.75,4.74,1.93,7.8   c-1.17,4.35-2.09,8.77-3.09,13.17C340.89,480.83,339.36,487.63,337.71,494.94z"/>
	<path d="M399.96,413.74c-4.35-0.01-7.96-2.91-8.94-7.18c-0.94-4.13,1.14-8.7,5.21-10.12c1.91-0.67,5.59-0.88,6.16,0.07   c1.96,3.28,7.24,4.09,6.74,9.06C408.66,410.19,404.69,413.76,399.96,413.74z"/>
	<path d="M368.64,413.75c-4.72-0.01-8.35-2.82-9.31-6.84c-1-4.13,0.74-8.35,4.42-10.27c2.5-1.3,5.8-2.31,7.47,0.26   c2.25,3.46,8.62,5.24,5.36,11.41C374.75,411.77,372.06,413.64,368.64,413.75z"/>
	<path d="M431.66,413.75c-4.47-0.06-8.25-3.31-8.88-7.64c-0.65-4.48,1.77-8.94,6-10.01c1.85-0.47,5.35-0.32,5.81,0.64   c1.64,3.46,7.31,4.05,6.27,9.29C439.99,410.47,436.27,413.81,431.66,413.75z"/>
</g>
</svg>