<svg xmlns="http://www.w3.org/2000/svg" xmlns:xlink="http://www.w3.org/1999/xlink" version="1.1" id="Layer_1" x="0px" y="0px" style="enable-background:new 0 0 800 800;" xml:space="preserve" viewBox="100 235 600 330">
<style type="text/css">
	.st0{fill:#211D20;}
	.st1{fill:#828282;}
	.st2{fill:#FFFFFF;}
	.st3{fill:#545554;}
</style>
<g>
	<rect x="100" y="235" class="st0" width="600" height="330"/>
	<g>
		<path class="st1" d="M246.24,381.86c0-4.1,0-8.2,0-12.31c0.43-0.21,0.28-0.62,0.29-0.95c0.23-4.41,0.91-8.76,1.87-13.05    c5.16-23.07,17.09-41.98,36.06-55.98c23.42-17.28,49.68-22.66,78.18-16.47c13.79,3,26.11,9.17,37.21,17.83    c-0.19,0.51-0.64,0.78-1.03,1.11c-4.49,3.74-8.68,7.8-12.44,12.29c-13.7,16.38-21.1,35.28-22.39,56.54    c-0.59,9.77,0.48,19.44,3,28.9c4.86,18.24,14.2,33.78,28.19,46.5c1.55,1.41,3.33,2.55,4.68,4.18c-1.84,1.55-3.82,2.92-5.83,4.25    c-22.05,14.53-46.14,19.31-71.92,14.05c-24.78-5.05-44.48-18.31-59.01-39.03c-8.74-12.46-13.98-26.33-16.04-41.42    C246.79,386.16,246.86,383.97,246.24,381.86z"/>
		<path class="st2" d="M523.22,519.37c-0.45-0.48-1.1-0.44-1.66-0.61c-6.68-1.98-10.43-9.73-8.17-16.93    c2.07-6.62,9.14-10.37,15.61-8.32c1.66,0.53,2.91,1.63,4.39,2.97c0-2.05,0-3.85,0-5.66c0-2.1,0.04-4.2-0.02-6.3    c-0.02-0.88,0.26-1.24,1.13-1.11c0.05,0.01,0.1,0,0.15,0c1.37,0.04,3.16-0.43,4.01,0.25c0.9,0.73,0.28,2.59,0.29,3.95    c0.03,9.94-0.01,19.87,0.04,29.81c0.01,1.14-0.26,1.6-1.42,1.42c-0.45-0.07-0.92-0.01-1.38-0.01c-2.71,0-2.71,0-2.86-3    c-1.53,2.15-3.61,2.92-5.78,3.55C526.09,519.37,524.66,519.37,523.22,519.37z M526.21,498.04c-4.49,0.02-7.62,3.35-7.59,8.07    c0.03,4.69,3.35,8.22,7.75,8.24c4.06,0.03,7.61-3.8,7.56-8.14C533.87,501.4,530.69,498.02,526.21,498.04z"/>
		<path class="st2" d="M317.33,519.37c-0.44-0.49-1.08-0.47-1.65-0.63c-6.58-1.96-10.33-9.71-8.13-16.84    c2.05-6.64,9.12-10.44,15.57-8.41c1.67,0.52,2.94,1.59,4.17,2.73c0.09-0.07,0.22-0.12,0.23-0.18c0.19-2.52,0.19-2.52,2.81-2.52    c2.82,0,2.82,0,2.82,2.75c0,7.07-0.02,14.14,0.02,21.21c0.01,1.05-0.24,1.48-1.35,1.37c-0.91-0.09-1.85-0.1-2.76,0    c-1.23,0.14-1.69-0.32-1.5-1.52c0.05-0.35,0.01-0.71,0.01-1.59c-1.64,2.29-3.75,3.03-5.93,3.64    C320.21,519.37,318.77,519.37,317.33,519.37z M327.83,506.19c-0.04-4.88-3.17-8.19-7.69-8.15c-4.44,0.04-7.57,3.34-7.57,7.94    c0.01,5.13,3.19,8.12,7.77,8.33C324.47,514.51,327.87,510.66,327.83,506.19z"/>
		<path class="st2" d="M472.13,519.37c-0.44-0.49-1.08-0.47-1.65-0.63c-6.58-1.96-10.33-9.71-8.13-16.84    c2.05-6.64,9.12-10.44,15.57-8.41c1.66,0.52,2.95,1.57,4.16,2.74c0.11-0.08,0.24-0.13,0.24-0.19c0.19-2.52,0.19-2.52,2.81-2.52    c2.82,0,2.82,0,2.82,2.75c0,7.07-0.02,14.14,0.02,21.21c0.01,1.05-0.24,1.48-1.35,1.37c-0.91-0.09-1.85-0.1-2.76,0    c-1.23,0.14-1.69-0.32-1.5-1.52c0.05-0.35,0.01-0.71,0.01-1.59c-1.64,2.29-3.75,3.03-5.93,3.64    C475.01,519.37,473.57,519.37,472.13,519.37z M475.31,498.04c-4.41-0.03-7.7,3.26-7.7,7.82c-0.01,5.27,3.22,8.26,7.83,8.45    c4.07,0.17,7.46-3.64,7.47-8C482.91,501.46,479.81,498.08,475.31,498.04z"/>
		<path class="st2" d="M399.2,519.37c-2.33-0.82-4.7-1.49-6.62-3.26c-4.18-3.86-5.29-11.74-2.27-17.08    c2.86-5.05,9.13-7.43,14.91-5.51c4.52,1.5,6.72,4.96,7.49,9.46c0.22,1.31,0.15,2.66,0.3,3.98c0.14,1.24-0.23,1.67-1.56,1.65    c-5.18-0.08-10.36-0.03-15.53-0.03c-0.51,0-1.02,0-1.54,0c0.46,3.74,3.54,6.15,7.52,5.99c2.31-0.09,4.46-0.72,6.34-2.04    c0.87-0.61,1.3-0.46,1.72,0.4c0.16,0.32,0.39,0.6,0.59,0.9c1.53,2.31,1.51,2.28-1.01,3.67c-1.8,0.99-3.79,1.33-5.73,1.88    C402.27,519.37,400.74,519.37,399.2,519.37z M401.14,503.72c1.79,0,3.59-0.05,5.38,0.02c0.96,0.03,1.12-0.29,0.9-1.15    c-0.76-3.07-3-4.89-6.05-4.85c-3.36,0.04-6.01,2.04-6.7,5.02c-0.17,0.75,0,1,0.79,0.98C397.35,503.69,399.24,503.72,401.14,503.72    z"/>
		<path class="st2" d="M345.96,519.37c-1.68-0.86-3.6-0.92-5.31-1.76c-2.63-1.29-2.67-1.22-1.09-3.68c0.14-0.22,0.31-0.41,0.41-0.65    c0.47-1.11,0.96-1.27,2.12-0.58c3.21,1.9,6.72,2.35,10.36,1.42c0.44-0.11,0.87-0.3,1.27-0.52c0.81-0.46,1.33-1.17,1.33-2.11    c0-0.99-0.71-1.57-1.55-1.91c-1.48-0.6-3.04-0.89-4.64-0.97c-2.07-0.1-4.05-0.63-5.9-1.54c-2.55-1.25-3.79-3.35-3.74-6.19    c0.05-3.14,1.62-5.47,4.39-6.67c5.26-2.28,10.49-1.62,15.58,0.76c0.89,0.42,0.88,0.89,0.41,1.66c-0.64,1.04-0.92,2.56-1.82,3.11    c-0.89,0.55-2.1-0.64-3.21-0.95c-1.99-0.55-3.99-0.89-6.07-0.69c-0.63,0.06-1.2,0.24-1.76,0.49c-1.01,0.45-1.74,1.17-1.64,2.35    c0.1,1.14,0.99,1.63,2,1.82c2.36,0.44,4.77,0.67,7.09,1.27c3.11,0.8,5.69,2.35,6.29,5.93c0.48,2.92-0.54,5.2-2.84,6.99    c-1.91,1.49-4.23,1.82-6.46,2.42C349.44,519.37,347.7,519.37,345.96,519.37z"/>
		<path class="st2" d="M375.81,519.37c-5.16-1.44-6.36-5.28-6.21-10.04c0.1-3.22-0.01-6.46,0.04-9.68c0.01-0.85-0.2-1.21-1.1-1.14    c-0.97,0.07-1.95-0.03-2.92,0.03c-0.83,0.06-1-0.27-1.03-1.05c-0.13-3.91-0.15-3.95,3.78-3.94c0.98,0,1.33-0.22,1.28-1.26    c-0.09-1.84,0.01-3.69-0.04-5.53c-0.02-0.75,0.23-0.97,0.96-0.94c1.48,0.07,3.35-0.46,4.32,0.25c0.94,0.69,0.27,2.67,0.29,4.09    c0.05,3.37,0.02,3.37,3.43,3.37c1.49,0,2.98,0.05,4.46-0.02c0.91-0.05,1.07,0.3,1.09,1.13c0.05,3.89,0.08,3.86-3.84,3.91    c-1.67,0.02-3.91-0.73-4.86,0.31c-0.83,0.91-0.26,3.11-0.28,4.74c-0.02,1.84,0.07,3.69-0.02,5.53c-0.24,4.73,2.44,5.49,6.22,4.61    c0.77-0.18,1.62-1.03,2.21-0.62c0.54,0.38,0.62,1.45,0.88,2.22c0.81,2.39,0.81,2.41-1.6,3.25c-0.9,0.31-1.82,0.53-2.74,0.8    C378.68,519.37,377.24,519.37,375.81,519.37z"/>
		<path class="st2" d="M447.51,519.37c-0.21-0.49-0.7-0.36-1.06-0.45c-5.54-1.38-8.65-4.98-9.59-10.51    c-1.21-7.09,2.73-13.35,9.53-14.98c4-0.96,7.91-0.64,11.55,1.55c0.95,0.57,1.35,1.07,0.56,2.08c-0.47,0.6-0.85,1.28-1.16,1.98    c-0.49,1.11-0.93,1.34-2.09,0.58c-2.78-1.82-5.82-2.23-8.87-0.64c-3.82,1.98-5.24,6.79-3.37,11.06c1.54,3.51,5.74,5.2,9.75,3.9    c0.73-0.24,1.45-0.52,2.12-0.88c1.75-0.94,1.74-0.96,2.78,0.79c1.77,2.97,1.77,3.03-1.51,4.43c-1.09,0.47-2.26,0.74-3.4,1.1    C451,519.37,449.26,519.37,447.51,519.37z"/>
		<path class="st3" d="M399.86,300.94c5.95-4.39,12.17-8.35,18.88-11.48c10.51-4.91,21.57-7.71,33.15-8.54    c13.07-0.93,25.79,0.72,38.13,5.06c13.76,4.84,25.83,12.44,36.08,22.81c13.48,13.63,22.14,29.88,25.88,48.69    c2.03,10.18,2.31,20.45,0.91,30.74c-3.08,22.65-13.03,41.79-29.77,57.32c-14.63,13.58-31.95,21.74-51.74,24.32    c-25.89,3.38-49.29-2.99-70.24-18.52c-0.41-0.3-0.84-0.59-1.26-0.88c-1.35-1.63-3.14-2.77-4.68-4.18    c-13.99-12.73-23.33-28.27-28.19-46.5c-2.52-9.46-3.59-19.13-3-28.9c1.29-21.26,8.69-40.16,22.39-56.54    c3.76-4.49,7.94-8.55,12.44-12.29C399.22,301.72,399.67,301.45,399.86,300.94z"/>
		<path class="st2" d="M267.27,496.36c3.52-4.55,11.79-4.75,15.76,0.95c2.62-3.53,6.22-4.66,10.42-4.22    c4.92,0.51,8.22,3.75,8.43,8.75c0.23,5.37,0.07,10.76,0.11,16.14c0.01,0.7-0.26,0.87-0.9,0.85c-1.33-0.04-2.67-0.07-4,0.01    c-0.99,0.06-1.32-0.23-1.3-1.26c0.06-3.95,0.03-7.89,0.02-11.84c0-0.72,0.01-1.44-0.05-2.15c-0.25-3.29-2.3-5.33-5.37-5.37    c-3.31-0.04-5.85,2.06-5.98,5.32c-0.19,4.55-0.16,9.12-0.11,13.68c0.01,1.26-0.28,1.75-1.59,1.62c-1.27-0.13-2.96,0.4-3.72-0.25    c-0.9-0.75-0.28-2.5-0.3-3.81c-0.06-3.69,0.02-7.38-0.12-11.07c-0.14-3.54-2.25-5.54-5.5-5.5c-3.51,0.04-5.81,2.21-5.88,5.74    c-0.09,4.51-0.08,9.02-0.02,13.53c0.01,1.08-0.29,1.44-1.37,1.35c-1.07-0.09-2.16-0.07-3.23,0c-0.84,0.05-1.02-0.27-1.02-1.05    c0.03-7.74,0.03-15.48-0.01-23.22c0-0.93,0.34-1.14,1.15-1.06c0.51,0.05,1.02,0.01,1.54,0.01C267,493.52,267,493.52,267.27,496.36    z"/>
		<path class="st2" d="M424.76,496.25c2.39-3.28,5.6-3.52,8.98-3.32c1,0.06,1.23,0.46,0.85,1.34c-0.1,0.23-0.17,0.48-0.25,0.73    c-0.33,1.07-0.36,2.51-1.08,3.12c-0.71,0.61-2.08-0.11-3.17-0.18c-2.83-0.18-5.04,1.71-5.35,4.77c-0.43,4.14-0.13,8.3-0.18,12.45    c-0.04,3.68-0.01,3.69-3.62,3.67c-2.23-0.01-1.96,0.29-1.96-1.95c-0.01-7.33,0.02-14.66-0.03-21.99    c-0.01-1.18,0.33-1.59,1.47-1.42c0.4,0.06,0.82,0.01,1.23,0.01C424.3,493.46,424.3,493.46,424.76,496.25z"/>
		<path class="st2" d="M501.02,496.27c2.42-3.2,5.56-3.65,8.96-3.3c0.87,0.09,1.48,0.37,0.91,1.41c-0.05,0.09-0.07,0.19-0.1,0.29    c-0.37,1.17-0.43,2.66-1.21,3.41c-0.73,0.71-2.16-0.12-3.29-0.16c-2.77-0.1-4.87,1.76-5.25,4.73c-0.36,2.86-0.12,5.73-0.18,8.6    c-0.02,1.08,0.04,2.15-0.01,3.23c-0.07,1.41,0.64,3.35-0.29,4.1c-0.89,0.71-2.75,0.17-4.17,0.26c-0.9,0.06-1.13-0.29-1.12-1.15    c0.04-2.66,0.02-5.33,0.02-7.99c0-4.92,0.04-9.84-0.03-14.76c-0.02-1.24,0.37-1.66,1.55-1.49c0.45,0.06,0.92,0.01,1.38,0.01    C500.72,493.46,500.72,493.46,501.02,496.27z"/>
	</g>
</g>
</svg>