<svg xmlns="http://www.w3.org/2000/svg" xmlns:xlink="http://www.w3.org/1999/xlink" version="1.1" id="Layer_1" x="0px" y="0px" style="enable-background:new 0 0 800 800;" xml:space="preserve" viewBox="100 235 600 330">
<style type="text/css">
	.st0{fill:#211D20;}
	.st1{fill:#FFFFFF;}
</style>
<g>
	<rect x="100" y="235" class="st0" width="600" height="330"/>
	<g>
		<path class="st1" d="M212.18,347.67c0.59,0.15,0.86-0.34,1.22-0.62c0.54-0.43,0.98-1,1.64-1.29c0.08,0.1,0.16,0.2,0.24,0.3    c-1.48,3.5-3,6.99-4.13,10.63c-3.22,10.28-4.31,20.81-3.61,31.53c0.75,11.35,3.45,22.21,8.73,32.35    c3.93,7.55,9.03,14.15,15.88,19.3c5.43,4.09,11.47,6.8,18.24,7.58c4.52,0.52,9.06,0.42,13.57-0.27    c14.66-2.26,25.06-10.36,31.43-23.55c7.04-14.57,4.56-32.14-5.92-44.41c-0.79-0.92-1.65-1.79-2.64-2.86c1.31,0,2.4-0.1,3.48,0.01    c13.19,1.38,25.3,5.65,35.98,13.63c0.74,0.55,1.79,0.61,2.3,1.51c0.28,0.39,0.29,0.84,0.29,1.29c-0.08,4.08,0.21,8.16-0.25,12.24    c-0.3,2.72-0.7,5.42-1.31,8.08c-1.43,6.31-3.68,12.29-6.91,17.93c-3.39,5.91-7.37,11.36-12.22,16.13    c-3.67,3.62-7.78,6.71-12.15,9.46c-9.71,6.11-20.29,9.6-31.7,10.37c-5.68,0.39-11.38,0.19-17.04-0.85    c-7.49-1.37-14.6-3.75-21.3-7.36c-0.54-0.29-1.13-0.51-1.39-1.14c0.14-0.06,0.41,0.08,0.4-0.22c0-0.04-0.26-0.07-0.4-0.1    c-0.01-0.05-0.02-0.1-0.04-0.14c-0.02-0.02-0.07-0.02-0.11-0.03c0.06,0.05,0.11,0.1,0.17,0.15c0,0.12,0,0.23,0,0.35    c-0.67-0.16-1.44-0.16-1.7-1.02c0.15-0.06,0.43,0.09,0.42-0.22c0-0.04-0.27-0.07-0.42-0.1c-0.01-0.21-0.14-0.31-0.33-0.34    c-0.12-0.31-0.37-0.37-0.67-0.34c-0.06-0.64-0.5-0.71-1-0.68c-0.01-0.2-0.14-0.31-0.33-0.35c-0.12-0.3-0.37-0.37-0.66-0.35    c-0.03-0.19-0.16-0.29-0.32-0.35c-0.11-0.55-0.53-0.65-0.99-0.71c-0.28-0.79-0.88-1.19-1.67-1.37c-0.16-0.58-0.64-0.91-1.06-1.26    c-4.92-4.19-9.28-8.89-12.93-14.24c-4.51-6.63-7.86-13.8-9.87-21.55c-1.36-5.25-2.2-10.6-2.16-16.05c0.02-2.35,0-4.7,0-7.06    c0-0.63,0-1.26,0-1.89c-0.91,3.7-0.65,7.45-0.64,11.18c0,2.68,0.33,5.36,0.79,7.99c0.83,4.79,2.05,9.49,3.85,14.03    c1.87,4.7,4.22,9.12,7.04,13.32c3.14,4.67,6.92,8.78,10.98,12.64c0.39,0.37,0.95,0.65,0.88,1.34c-0.49-0.05-0.79-0.4-1.11-0.7    c-4.98-4.64-9.41-9.72-12.96-15.55c-5.78-9.49-9.22-19.76-10.05-30.81c-0.53-7.1-0.15-14.19,1.58-21.17    c1.65-6.67,4.01-13.04,7.48-18.98c0.23-0.39,0.31-1.04,1.04-0.84c-0.14,0.97-0.98,1.63-1.12,2.6c-0.27,0.14-0.32,0.4-0.34,0.67    c-0.27,0.14-0.3,0.4-0.34,0.67c-0.26,0.17-0.29,0.44-0.32,0.7c-0.35,0.37-0.53,0.8-0.52,1.3c0.24-0.42,0.54-0.81,0.49-1.32    c0.38-0.11,0.33-0.41,0.31-0.7c0.44-0.05,0.36-0.37,0.34-0.67c0.45-0.05,0.37-0.37,0.34-0.67c0.37,0.06,0.47-0.24,0.59-0.46    c1.26-2.23,2.64-4.37,4.07-6.49c0.12-0.18,0.3-0.4,0.29-0.58c-0.04-0.35-0.34-0.04-0.51-0.12c-0.07-0.56-0.08-1.08,0.74-0.96    c0.1,0.14-0.17,0.71,0.34,0.34c0.34-0.25,0.63-0.63,0.56-1.14c0.82-0.27,1.23-0.85,1.34-1.68c0.26,0.04,0.33-0.12,0.34-0.34    c1.47-1.19,2.82-2.5,3.9-4.08c-0.64,0.51-1.27,1.03-1.91,1.54c-0.1-0.55,0.15-0.96,0.51-1.33c1.72-1.79,3.6-3.41,5.52-4.98    c0.2-0.17,0.42-0.61,0.78-0.16c0.06,0.55-0.39,0.74-0.7,1.04C213.74,346.14,212.8,346.73,212.18,347.67    c-0.23,0.01-0.34,0.12-0.33,0.34c-0.22-0.01-0.34,0.11-0.35,0.33c0,0-0.04,0.04-0.04,0.04l0.04-0.05    c0.22-0.01,0.36-0.09,0.33-0.34C212.07,348.02,212.23,347.95,212.18,347.67z"/>
		<path class="st1" d="M224.62,457.66c0.26,0.63,0.85,0.85,1.39,1.14c6.7,3.61,13.8,5.99,21.3,7.36c5.67,1.04,11.36,1.23,17.04,0.85    c11.4-0.78,21.99-4.26,31.7-10.37c4.37-2.75,8.48-5.85,12.15-9.46c4.85-4.77,8.83-10.22,12.22-16.13    c3.24-5.64,5.48-11.62,6.91-17.93c0.61-2.67,1-5.36,1.31-8.08c0.46-4.08,0.17-8.16,0.25-12.24c0.01-0.45-0.01-0.9-0.29-1.29    c0.14-0.17-0.31-0.81,0.4-0.5c1.1,0.48,1.78,1.52,2.93,2.2c0.92-1.37,1.83-2.75,2.83-4.24c0.35,0.47,0.43,0.88,0.5,1.29    c1.03,6.21,1.66,12.45,1.3,18.74c-0.56,9.74-2.66,19.12-6.45,28.17c-7.89,18.87-27.38,40.13-57.2,45.95    c-42.73,8.34-82.49-18.1-92.56-58.81c-6.75-27.28,2-56.66,22.53-75.96c5.01-4.71,10.51-8.73,16.55-12.01    c0.58-0.32,1.12-0.76,1.82-0.8c0.06,0.07,0.12,0.13,0.18,0.19c-1.76,2.68-3.78,5.19-5.26,8.05c-0.19,0.37-0.48,0.6-0.92,0.57    c-0.36-0.45-0.58-0.01-0.78,0.16c-1.92,1.57-3.8,3.19-5.52,4.98c-0.36,0.37-0.61,0.79-0.51,1.33c-0.01,0.1-0.07,0.16-0.17,0.18    c-0.26-0.01-0.42,0.11-0.45,0.38l0.02-0.01c-0.24,0-0.35,0.12-0.34,0.36l0.02-0.01c-0.25,0.01-0.36,0.14-0.32,0.39l0.02-0.02    c-0.26-0.02-0.38,0.1-0.36,0.36l0.02-0.02c-0.26-0.01-0.37,0.12-0.35,0.37c0,0,0.03-0.01,0.03-0.01    c-0.74-0.07-0.82,0.39-0.76,0.96l0.01-0.01c-0.24,0-0.35,0.12-0.34,0.36l0.01-0.01c-0.24,0.01-0.34,0.15-0.32,0.38l0.02-0.02    c-0.25,0.01-0.36,0.14-0.32,0.39c0,0,0.03-0.02,0.03-0.02c-0.42,0.01-0.5,0.27-0.43,0.62l0.01-0.01    c-0.24,0.01-0.34,0.13-0.33,0.37l0.01-0.02c-0.25,0.02-0.34,0.16-0.31,0.4l0.04,0.03c-0.82-0.12-0.81,0.4-0.74,0.96l0-0.04    c-0.25,0.02-0.34,0.16-0.3,0.4l0.03-0.02c-0.43,0.02-0.49,0.28-0.42,0.63l0.01-0.01c-0.25,0.02-0.34,0.16-0.31,0.39l0.03-0.01    c-0.77-0.04-0.79,0.44-0.69,1.01l0.02,0c-0.78-0.03-0.79,0.45-0.68,1.02l0.02-0.02c-0.43,0.04-0.48,0.31-0.4,0.65l0.01-0.01    c-0.75,0.02-0.78,0.49-0.64,1.05l0.04,0.03c-0.73-0.21-0.82,0.45-1.04,0.84c-3.48,5.94-5.83,12.31-7.48,18.98    c-1.73,6.97-2.11,14.07-1.58,21.17c0.83,11.05,4.26,21.32,10.05,30.81c3.56,5.84,7.99,10.92,12.96,15.55    c0.33,0.3,0.63,0.65,1.11,0.7l-0.02-0.01c0.15,0.27,0.39,0.38,0.69,0.35l-0.02-0.01c0.04,0.64,0.44,0.93,1.02,1.02l-0.02-0.01    c0.14,0.3,0.39,0.38,0.69,0.35l-0.02-0.01c0.04,0.65,0.45,0.91,1.02,1.03l-0.02-0.02c0.15,0.28,0.4,0.36,0.69,0.35l-0.02-0.01    c0.07,0.63,0.52,0.71,1.03,0.69l-0.02-0.01c0.05,0.66,0.51,0.71,1.03,0.69l-0.02-0.02c0.05,0.66,0.51,0.71,1.03,0.69l-0.02-0.02    c0.03,0.21,0.16,0.31,0.36,0.36l-0.02-0.02c0.13,0.32,0.39,0.37,0.69,0.35l-0.02-0.02c0.05,0.66,0.52,0.7,1.03,0.69l-0.02-0.01    c0.25,0.86,1.02,0.86,1.7,1.02L224.62,457.66z"/>
		<g>
			<path class="st1" d="M463.4,392.45c1.12,1.67,2.12,3.07,3.04,4.53c1.56,2.47,3.8,3.76,6.69,4.02c3.75,0.34,7.34-0.19,10.74-1.83     c1.58-0.76,3-1.76,3.99-3.26c1.34-2.03,1.09-4.1,0.02-6.11c-1.05-1.97-2.79-2.8-5-2.75c-0.87,0.02-1.59,0.41-2.36,0.72     c-7.52,2.98-14.77,2.37-21.35-2.32c-4.87-3.47-6.07-8.77-5.7-14.45c0.27-4.09,2.01-7.62,4.71-10.67     c4.7-5.29,10.62-8.29,17.58-9.51c8.86-1.55,16.61,0.81,23.68,6.06c3.24,2.41,6.28,5.04,9.15,7.88c0.47,0.47,0.86,1.07,1.79,1.41     c0-0.99,0-1.86,0-2.73c0-2.71-0.03-5.42,0.01-8.13c0.03-1.97,0.84-2.75,2.79-2.84c0.49-0.02,0.97-0.01,1.46-0.01     c34.31,0,68.62,0,102.93,0c4.1,0,4.32,0.22,4.3,4.37c-0.01,1.6,0.04,3.2-0.02,4.79c-0.08,2.07-0.89,2.84-2.97,2.91     c-0.62,0.02-1.25,0.01-1.88,0.01c-17.85,0-35.7,0-53.55,0.01c-2.59,0-2.28-0.33-2.29,2.36c-0.02,5.97-0.01,11.95,0,17.92     c0,0.67-0.13,1.36,0.23,2.24c0.47-0.43,0.85-0.79,1.24-1.14c5.41-4.8,10.94-9.44,17.07-13.3c3.6-2.26,7.34-4.2,11.49-5.28     c1.59-0.41,3.12-0.41,4.71,0.06c4.45,1.32,8.57,3.23,12,6.43c1.63,1.53,3.07,3.22,3.93,5.32c0.87,2.13,0.44,3.21-1.65,4.14     c-1.8,0.8-2.97,2.24-3.99,3.84c-1.51,2.36-2.49,4.96-3.21,7.65c-2.48,9.35-3.08,18.88-2.51,28.5c0.14,2.28,0.52,4.55,1.19,6.75     c0.4,1.33,0.93,2.61,1.67,3.8c1.27,2.03,3.71,2.83,5.78,2.22c1-0.29,2-0.56,3.04-0.69c0.73-0.09,1.16,0.17,1.52,0.77     c1.93,3.13,2.45,6.53,1.48,10.01c-0.88,3.16-3.43,4.61-6.5,5.1c-4.4,0.7-8.24-0.51-11.47-3.62c-2.23-2.16-3.83-4.74-5.13-7.53     c-2.32-4.96-3.41-10.25-4.15-15.63c-0.59-4.34-0.68-8.72-1.04-13.07c-0.57-6.98-0.81-13.96-0.79-21.08     c-0.97-0.08-1.53,0.47-2.14,0.85c-6.3,3.99-11.18,9.31-14.63,15.92c-3.05,5.85-4.85,12.09-5.68,18.61     c-0.32,2.53-1.81,3.48-4.24,2.51c-3.41-1.37-6.8-2.81-10.18-4.25c-1.27-0.54-2.94-0.68-3.68-1.76c-0.74-1.09-0.23-2.7-0.23-4.08     c-0.02-17.09-0.01-34.17-0.01-51.26c0-2.56,0.31-2.3-2.36-2.31c-4.93-0.01-9.86-0.01-14.79,0c-2.2,0-1.98-0.14-1.98,2.06     c0,13.68,0,27.37,0,41.05c0,14.86,0,29.73,0,44.59c0,0.62,0.05,1.26-0.03,1.87c-0.23,1.92-1.93,2.81-3.67,1.95     c-0.19-0.09-0.35-0.22-0.53-0.32c-3.51-2.11-7-4.26-10.55-6.3c-1.1-0.63-1.5-1.36-1.48-2.63c0.07-5.49,0.03-10.97,0.03-16.46     c0-15.28-0.02-30.56,0.03-45.84c0-1.54-0.37-2.8-1.23-4.06c-3.02-4.44-6.38-8.59-10.55-12.01c-3.95-3.23-8.39-5.11-13.62-4.7     c-2.33,0.18-4.51,0.79-6.45,2.11c-2.1,1.44-3.46,3.39-3.87,5.93c-0.42,2.59,0.62,4.62,2.6,6.2c0.78,0.62,1.72,0.87,2.74,0.51     c0.85-0.31,1.71-0.56,2.56-0.86c5.98-2.14,11.03-0.93,15.3,3.77c2.16,2.38,3.85,5.09,5.05,8.08c1.95,4.84,1.5,9.74-0.11,14.48     c-5,14.65-18.37,18.46-29.19,15.26c-5.17-1.53-8.93-4.99-11.5-9.67c-1.82-3.31-2.26-6.8-0.78-10.42     C461.8,397.02,462.52,394.85,463.4,392.45z"/>
			<path class="st1" d="M409.71,405.33c2.27,1.2,4.22,2.1,5.95,3.41c6.91,5.28,7.67,14.73,1.67,21.03c-2.79,2.92-6.25,4.66-10.2,5.2     c-5.34,0.73-10.52,0-15.41-2.38c-2.79-1.36-5.3-3.16-7.09-5.68c-6.43-9.05-8.2-18.97-4.9-29.63c1.14-3.68,3.28-6.87,5.86-9.75     c5.81-6.47,12.96-8.48,21.32-6.44c7.27,1.77,13.12,5.87,18.07,11.33c1.67,1.84,3.14,3.88,4.7,5.83c0.61-0.15,0.4-0.65,0.4-1.01     c0.01-10.49,0.02-20.98,0.01-31.46c0-1.62-0.03-1.63-2-1.63c-16.46,0-32.92,0-49.38,0c-3.47,0-6.95,0.01-10.42,0     c-2.73-0.01-3.42-0.71-3.43-3.46c-0.01-1.81-0.03-3.61,0.01-5.42c0.05-1.98,0.81-2.7,2.82-2.78c0.49-0.02,0.97-0.01,1.46-0.01     c26.81,0,53.62,0,80.43,0c0.56,0,1.11-0.02,1.67,0.01c1.93,0.11,2.9,1.06,2.96,3.02c0.06,2.08,0.05,4.17,0.01,6.25     c-0.04,1.94-0.86,2.72-2.84,2.79c-1.18,0.04-2.36,0.04-3.54,0c-0.8-0.02-1.15,0.3-1.09,1.1c0.04,0.55,0,1.11,0,1.67     c0,28.41,0,56.81,0,85.22c0,0.69,0.03,1.39-0.01,2.08c-0.13,2.32-1.86,3.28-3.89,2.12c-1.81-1.03-3.57-2.14-5.36-3.21     c-1.73-1.04-3.42-2.14-5.2-3.07c-1.33-0.69-1.83-1.57-1.8-3.1c0.1-5.07,0.07-10.14,0.03-15.21     c-0.09-10.48-4.26-19.27-11.48-26.64c-4.53-4.62-10.17-6.88-16.69-6.83c-4.89,0.04-9.33,4.04-9.92,8.93     c-0.07,0.55-0.09,1.11-0.16,1.66c-0.22,1.67,0.22,3.21,1.2,4.51c2.73,3.64,9.44,5.48,13.68,2.34c1.72-1.27,2.82-2.78,2.63-5.08     C409.59,409.27,409.71,407.47,409.71,405.33z"/>
		</g>
		<path class="st1" d="M331.16,388.39c-13.76-12.58-30.01-17.95-48.49-16.15c-18.49,1.81-33.06,10.78-44.39,25.33    c5.73-15.31,15.46-27.14,30.24-34.44c14.66-7.25,29.95-8.7,45.74-4.11c0.28-1.22,0.12-2.22,0.08-3.22    c-0.17-4.09-0.36-8.17-0.52-12.26c-0.06-1.56-0.03-1.6,1.52-1.55c9.28,0.28,18.04,2.55,26.29,6.81c3.5,1.81,6.79,3.93,9.9,6.34    c1.19,0.92,1.2,0.94,0.43,2.11c-6.66,10.11-13.33,20.21-20,30.31C331.74,387.87,331.61,388.27,331.16,388.39z"/>
		<path class="st1" d="M222.1,417.54c-0.42-0.63-0.8-1.15-1.14-1.7c-5.48-9.05-8.84-18.82-9.85-29.36    c-1.64-17.03,2.19-32.71,11.79-46.91c6.86-10.15,15.88-17.87,26.82-23.37c0.4-0.2,0.81-0.38,1.22-0.56    c1.06-0.45,1.08-0.45,1.65,0.6c1.86,3.39,3.71,6.78,5.55,10.18c2.64,4.87,5.28,9.75,7.92,14.63c0.69,1.28,0.69,1.29-0.64,1.85    c-9.7,4.08-18.15,9.96-25.25,17.72c-9.59,10.5-15.54,22.77-17.64,36.87c-0.93,6.3-0.95,12.61-0.33,18.93    c0.02,0.22,0.04,0.45,0.04,0.67C222.26,417.17,222.2,417.27,222.1,417.54z"/>
		<path class="st1" d="M272.11,343.64c-0.72-1.33-1.35-2.5-1.99-3.67c-1.79-3.29-3.59-6.59-5.38-9.88c-0.64-1.18-0.64-1.2,0.49-1.95    c7.36-4.91,15.4-8.17,24.12-9.72c6.06-1.07,12.13-1.24,18.24-0.42c0.94,0.13,1.17,0.46,1.2,1.35c0.18,7.23,0.4,14.45,0.61,21.67    c0.11,3.98,0.23,7.95,0.33,11.93c0.01,0.44,0.12,0.9-0.19,1.37c-15.67-2.33-30.78-0.38-45.11,6.55    c-14.36,6.95-25.14,17.71-32.97,31.55c1.63-11.32,6.41-21.21,13.63-29.96C252.28,353.71,261.35,347.53,272.11,343.64z"/>
		<path class="st1" d="M221.24,335.54c0.05-0.14,0.14-0.27,0.28-0.14c0.13,0.12,0,0.24-0.1,0.34    C221.36,335.67,221.3,335.6,221.24,335.54z"/>
		<path class="st1" d="M215.03,345.75c0.12-0.1,0.26-0.25,0.39-0.09c0.12,0.15,0.01,0.29-0.15,0.38    C215.2,345.95,215.12,345.85,215.03,345.75z"/>
		<path class="st1" d="M213.87,450.27c0.07-0.68-0.49-0.97-0.88-1.34c-4.06-3.86-7.84-7.97-10.98-12.64    c-2.82-4.2-5.17-8.62-7.04-13.32c-1.8-4.54-3.02-9.23-3.85-14.03c-0.46-2.63-0.78-5.31-0.79-7.99c-0.01-3.73-0.27-7.48,0.64-11.18    c0,0.63,0,1.26,0,1.89c0,2.35,0.02,4.7,0,7.06c-0.05,5.46,0.8,10.8,2.16,16.05c2.01,7.76,5.36,14.93,9.87,21.55    c3.64,5.35,8,10.05,12.93,14.24c0.42,0.36,0.9,0.68,1.06,1.26c-0.05,0.06-0.1,0.13-0.15,0.19c-0.21-0.03-0.41-0.05-0.62-0.08    l0.02,0.01c-0.14-0.3-0.38-0.39-0.69-0.35l0.02,0.01c-0.02-0.66-0.42-0.95-1.02-1.02l0.02,0.01c-0.12-0.33-0.38-0.39-0.69-0.35    L213.87,450.27z"/>
		<path class="st1" d="M216.98,451.83c0.79,0.17,1.39,0.57,1.67,1.37c-0.04,0.05-0.07,0.09-0.11,0.14    c-0.21-0.02-0.43-0.04-0.64-0.05l0.02,0.01c-0.13-0.32-0.39-0.38-0.69-0.35l0.02,0.02c0.07-0.4-0.24-0.64-0.4-0.94    C216.88,451.96,216.93,451.89,216.98,451.83z"/>
		<path class="st1" d="M204.76,355.39c0.07,0.5-0.21,0.89-0.56,1.14c-0.5,0.37-0.24-0.2-0.34-0.34c0,0-0.04-0.03-0.04-0.03    c0.27,0,0.35-0.15,0.31-0.4l-0.01,0.02c0.26,0.02,0.34-0.14,0.33-0.37l-0.01,0.01c0.12,0,0.23,0,0.35,0L204.76,355.39z"/>
		<path class="st1" d="M197.7,366.84c0.05,0.51-0.25,0.91-0.49,1.32c-0.01-0.5,0.17-0.93,0.52-1.3L197.7,366.84z"/>
		<path class="st1" d="M218.65,453.2c0.45,0.07,0.88,0.17,0.99,0.71l-0.09,0.1c-0.21-0.02-0.43-0.04-0.64-0.06l0.02,0.01    c-0.13-0.21-0.26-0.42-0.38-0.63C218.57,453.29,218.61,453.24,218.65,453.2z"/>
		<path class="st1" d="M220.94,454.96c0.51-0.03,0.95,0.04,1,0.68l-0.01,0.01c-0.23,0-0.45-0.01-0.68-0.01c0,0,0.02,0.02,0.02,0.02    c-0.05-0.19-0.18-0.3-0.36-0.36l0.02,0.02c-0.02-0.11-0.02-0.22-0.02-0.33L220.94,454.96z"/>
		<path class="st1" d="M224.63,457.67c0-0.12,0-0.23,0-0.35l-0.02,0.02c0.14,0.03,0.4,0.06,0.4,0.1c0.01,0.3-0.26,0.15-0.4,0.22    L224.63,457.67z"/>
		<path class="st1" d="M198.39,365.49c0.02-0.27,0.07-0.52,0.34-0.67c0,0-0.03-0.02-0.03-0.02c0.03,0.3,0.11,0.62-0.34,0.67    C198.36,365.47,198.39,365.49,198.39,365.49z"/>
		<path class="st1" d="M198.04,366.15c0.04-0.26,0.08-0.52,0.34-0.67c0,0-0.02-0.02-0.02-0.02c0.02,0.29,0.1,0.61-0.34,0.67    C198.02,366.13,198.04,366.15,198.04,366.15z"/>
		<path class="st1" d="M219.95,454.26c0.29-0.01,0.53,0.06,0.66,0.35l-0.05,0.06c-0.22-0.01-0.43-0.03-0.65-0.04l0.02,0.02    c-0.01-0.11-0.02-0.22-0.03-0.33L219.95,454.26z"/>
		<path class="st1" d="M221.94,455.64c0.29-0.03,0.54,0.03,0.67,0.34c-0.23,0-0.45-0.01-0.68-0.01l0.02,0.02    C221.94,455.87,221.94,455.76,221.94,455.64L221.94,455.64z"/>
		<path class="st1" d="M222.94,456.32c0.15,0.03,0.41,0.06,0.42,0.1c0.01,0.32-0.27,0.16-0.42,0.22l0.02,0.01c0-0.12,0-0.23,0-0.35    L222.94,456.32z"/>
		<path class="st1" d="M206.45,353.37c-0.01,0.22-0.08,0.37-0.34,0.34l0.03,0.03c0.04-0.18,0.14-0.31,0.34-0.34L206.45,353.37z"/>
		<path class="st1" d="M211.5,348.34c0.01-0.22,0.12-0.33,0.35-0.33l-0.02-0.02C211.87,348.24,211.73,348.33,211.5,348.34    L211.5,348.34z"/>
		<path class="st1" d="M219.63,453.91c0.16,0.07,0.29,0.16,0.32,0.35c0,0-0.05,0.05-0.05,0.05c-0.12-0.1-0.24-0.2-0.36-0.3    L219.63,453.91z"/>
		<path class="st1" d="M211.85,348.01c-0.01-0.23,0.1-0.34,0.32-0.35c0,0,0.01,0,0.01,0c0.04,0.28-0.11,0.35-0.35,0.32    C211.83,347.99,211.85,348.01,211.85,348.01z"/>
		<path class="st1" d="M220.61,454.61c0.19,0.04,0.31,0.14,0.33,0.35c0,0-0.02,0.02-0.02,0.02c-0.18-0.04-0.3-0.13-0.35-0.31    L220.61,454.61z"/>
		<polygon class="st1" points="211.51,348.33 211.47,348.38 211.51,348.34   "/>
		<path class="st1" d="M222.61,455.98c0.19,0.04,0.32,0.13,0.33,0.34c0,0,0.01-0.01,0.01-0.01    C222.77,456.27,222.64,456.18,222.61,455.98z"/>
		<path class="st1" d="M224.64,457.32c-0.06-0.05-0.11-0.1-0.17-0.15c0.04,0.01,0.09,0.01,0.11,0.03c0.03,0.04,0.03,0.09,0.04,0.14    L224.64,457.32z"/>
		<path class="st1" d="M216.83,452.02c0.16,0.3,0.47,0.54,0.4,0.94c-0.57-0.11-0.99-0.38-1.02-1.03    C216.42,451.96,216.62,451.99,216.83,452.02z"/>
		<path class="st1" d="M214.53,450.59c0.61,0.08,1,0.36,1.02,1.02C214.97,451.52,214.57,451.23,214.53,450.59z"/>
		<path class="st1" d="M222.61,455.98c0.03,0.2,0.16,0.29,0.34,0.33c0,0.12,0,0.23,0,0.35c-0.51,0.01-0.97-0.03-1.03-0.69    C222.15,455.97,222.38,455.98,222.61,455.98z"/>
		<path class="st1" d="M220.56,454.67c0.05,0.18,0.18,0.27,0.35,0.31c0,0.11,0,0.22,0.02,0.33c-0.51,0.02-0.98-0.03-1.03-0.69    C220.13,454.64,220.34,454.66,220.56,454.67z"/>
		<path class="st1" d="M219.54,454.01c0.12,0.1,0.24,0.2,0.36,0.3c0.01,0.11,0.01,0.22,0.03,0.33c-0.51,0.02-0.97-0.03-1.03-0.69    C219.11,453.97,219.33,453.99,219.54,454.01z"/>
		<path class="st1" d="M200.44,361.14c0.04,0.51-0.2,0.84-0.64,1.05C199.66,361.63,199.69,361.16,200.44,361.14z"/>
		<path class="st1" d="M218.53,453.34c0.13,0.21,0.26,0.42,0.38,0.63c-0.51,0.02-0.95-0.06-1.03-0.69    C218.11,453.3,218.32,453.32,218.53,453.34z"/>
		<path class="st1" d="M206.47,353.39c-0.19,0.03-0.29,0.16-0.34,0.34c-0.11,0-0.23,0-0.34,0c-0.07-0.57,0.02-1.02,0.76-0.96    C206.52,352.98,206.5,353.19,206.47,353.39z"/>
		<path class="st1" d="M202.17,358.49c-0.01,0.49-0.21,0.84-0.69,1.01C201.37,358.93,201.39,358.45,202.17,358.49z"/>
		<path class="st1" d="M201.49,359.49c0,0.49-0.2,0.84-0.68,1.02C200.7,359.94,200.71,359.46,201.49,359.49z"/>
		<path class="st1" d="M204.79,355.41c-0.12,0-0.23,0-0.35,0c-0.07-0.35,0.01-0.61,0.43-0.62C204.85,355,204.82,355.2,204.79,355.41    z"/>
		<path class="st1" d="M202.86,357.48c0.04,0.33-0.07,0.56-0.42,0.63C202.37,357.76,202.43,357.5,202.86,357.48z"/>
		<path class="st1" d="M200.83,360.49c0.05,0.33-0.04,0.57-0.4,0.65C200.35,360.8,200.4,360.53,200.83,360.49z"/>
		<path class="st1" d="M217.21,452.95c0.31-0.03,0.57,0.03,0.69,0.35C217.61,453.31,217.36,453.22,217.21,452.95z"/>
		<path class="st1" d="M213.85,450.26c0.31-0.05,0.57,0.02,0.69,0.35C214.24,450.64,214,450.53,213.85,450.26z"/>
		<path class="st1" d="M215.53,451.6c0.31-0.04,0.56,0.04,0.69,0.35C215.92,451.98,215.67,451.9,215.53,451.6z"/>
		<path class="st1" d="M221.93,455.65c0,0.11,0.01,0.23,0.01,0.34c-0.3,0.02-0.57-0.03-0.69-0.35    C221.48,455.64,221.71,455.64,221.93,455.65z"/>
		<path class="st1" d="M202.45,358.1c0.03,0.23-0.04,0.39-0.31,0.39C202.11,358.26,202.2,358.12,202.45,358.1z"/>
		<path class="st1" d="M203.13,357.1c0.04,0.24-0.04,0.39-0.3,0.4C202.79,357.26,202.89,357.12,203.13,357.1z"/>
		<path class="st1" d="M206.87,352.42c0.03,0.26-0.08,0.39-0.35,0.37C206.5,352.54,206.61,352.41,206.87,352.42z"/>
		<path class="st1" d="M207.21,352.09c0.02,0.26-0.1,0.39-0.36,0.36C206.83,352.19,206.94,352.06,207.21,352.09z"/>
		<path class="st1" d="M207.51,351.72c0.04,0.25-0.05,0.4-0.32,0.39C207.15,351.86,207.26,351.73,207.51,351.72z"/>
		<path class="st1" d="M207.83,351.37c0.01,0.24-0.08,0.38-0.34,0.36C207.48,351.5,207.59,351.37,207.83,351.37z"/>
		<path class="st1" d="M208.26,351.01c-0.07,0.22-0.18,0.39-0.45,0.38C207.84,351.12,208,351,208.26,351.01z"/>
		<path class="st1" d="M220.92,455.3c0.18,0.06,0.31,0.16,0.36,0.36C221.08,455.61,220.94,455.51,220.92,455.3z"/>
		<path class="st1" d="M205.17,354.43c0.04,0.25-0.06,0.39-0.32,0.39C204.82,354.57,204.92,354.43,205.17,354.43z"/>
		<path class="st1" d="M205.48,354.07c0.02,0.24-0.05,0.39-0.32,0.38C205.13,354.21,205.23,354.08,205.48,354.07z"/>
		<path class="st1" d="M205.8,353.72c0.01,0.23-0.09,0.37-0.34,0.36C205.45,353.84,205.56,353.72,205.8,353.72z"/>
	</g>
</g>
</svg>