<svg xmlns="http://www.w3.org/2000/svg" xmlns:xlink="http://www.w3.org/1999/xlink" version="1.1" id="Layer_1" x="0px" y="0px" style="enable-background:new 0 0 800 800;" xml:space="preserve" viewBox="100 235 600 330">
<style type="text/css">
	.st0{fill:#211D20;}
	.st1{fill:#FFFFFF;}
</style>
<g>
	<rect x="100" y="235" class="st0" width="600" height="330"/>
	<g>
		<path class="st1" d="M649.66,478.16c-0.99,0-1.67,0-2.36,0c-10.84,0-21.68-0.05-32.51,0.04c-1.82,0.01-2.5-0.53-2.84-2.32    c-1.19-6.25-2.68-12.45-3.82-18.7c-0.41-2.22-1.25-2.82-3.49-2.8c-15.63,0.11-31.26,0.09-46.89,0.01    c-1.77-0.01-2.54,0.54-3.08,2.19c-2.19,6.64-4.54,13.22-6.8,19.83c-0.36,1.04-0.7,1.78-2.1,1.77c-13.2-0.06-26.4-0.04-39.6-0.04    c-0.2,0-0.4-0.07-0.87-0.15c0.26-0.74,0.46-1.43,0.73-2.1c19.41-46.51,38.81-93.03,58.3-139.51c1.25-2.97,2.93-5.83,4.84-8.43    c2.82-3.83,6.93-5.89,11.65-5.97c11.81-0.18,23.62-0.07,35.43-0.08c0.2,0,0.4,0.09,0.82,0.18    C627.89,373.94,638.73,425.84,649.66,478.16z M588.79,364.51c-0.2-0.02-0.39-0.05-0.59-0.07c-6.97,19.37-13.94,38.74-21,58.34    c11.56,0,22.67,0,34.08,0C597.08,403.19,592.93,383.85,588.79,364.51z"/>
		<path class="st1" d="M150.34,326.5c0.17-1.15,0.36-2.1,0.44-3.05c0.11-1.21,0.72-1.6,1.92-1.58c3.61,0.06,7.22,0.02,10.84,0.02    c18.69,0,37.38-0.04,56.06,0.04c8.98,0.04,16.05,5.78,18,14.42c0.69,3.03,1.18,6.11,1.77,9.17c4.55,23.85,9.1,47.7,13.64,71.55    c0.67,3.51,1.32,7.02,2.43,10.63c0.36-0.76,0.76-1.5,1.06-2.28c13.39-33.79,26.78-67.57,40.11-101.38    c0.62-1.58,1.33-2.21,3.1-2.19c12.5,0.08,25.01,0.05,37.51,0.05c0.68,0,1.35,0,2.38,0c-1.57,3.8-3,7.3-4.46,10.78    c-19.96,47.63-39.95,95.25-59.86,142.9c-0.81,1.93-1.71,2.67-3.9,2.65c-12.36-0.13-24.73-0.11-37.1-0.01    c-1.86,0.01-2.63-0.51-3.1-2.32c-10.51-40.65-21.19-81.26-31.57-121.94c-2.05-8.02-6.44-13.33-14.02-16.47    c-11.11-4.6-22.47-8.33-34.26-10.72C151.08,326.7,150.83,326.62,150.34,326.5z"/>
		<path class="st1" d="M399.11,438.87c6.69,2.34,13.04,4.98,19.62,6.76c10.04,2.73,20.31,3.92,30.66,1.54    c4.24-0.98,8.17-2.69,11.36-5.78c5.17-5,5.57-11.75,0.42-16.72c-3.15-3.04-6.93-5.53-10.69-7.83    c-7.63-4.66-15.61-8.76-23.13-13.59c-7.29-4.68-13.49-10.71-16.39-19.11c-4.98-14.43-2.31-27.96,6.43-40.18    c8.06-11.26,19.68-17.46,32.74-21.19c12.73-3.63,25.68-4.13,38.78-2.61c7.74,0.9,15.28,2.62,22.69,5.02    c1.99,0.64,2.7,1.32,2.16,3.61c-2.31,9.89-4.37,19.84-6.58,30.04c-0.76-0.29-1.37-0.51-1.97-0.76    c-11.18-4.62-22.75-7.09-34.9-6.34c-4.76,0.29-9.37,1.3-13.44,3.88c-1.67,1.06-3.25,2.43-4.48,3.96    c-2.81,3.5-2.78,7.47-0.16,11.13c2.54,3.53,6.14,5.79,9.83,7.88c6.94,3.93,14,7.65,20.87,11.69c6.38,3.76,12.1,8.38,16.57,14.37    c4.25,5.7,6.68,12.09,7.11,19.2c1.43,24-11.74,40.72-31.07,49.35c-14.11,6.3-29,8.09-44.33,7.24    c-12.76-0.71-25.13-3.19-37.15-7.53c-1.78-0.64-2.09-1.38-1.69-3.18c2.22-9.92,4.29-19.88,6.42-29.83    C398.9,439.45,399.07,439,399.11,438.87z"/>
		<path class="st1" d="M397.08,322.12c-0.64,3.15-1.24,6.24-1.89,9.32c-8.45,39.84-16.9,79.68-25.35,119.52    c-1.81,8.52-3.63,17.04-5.42,25.57c-0.22,1.06-0.58,1.67-1.88,1.67c-12.57-0.05-25.14-0.03-37.71-0.04c-0.2,0-0.39-0.08-0.89-0.18    c0.68-3.32,1.33-6.61,2.03-9.89c9.15-43.01,18.3-86.03,27.46-129.04c1.09-5.14,2.21-10.28,3.29-15.42    c0.21-1.01,0.44-1.76,1.79-1.76c12.5,0.05,25,0.03,37.5,0.04C396.27,321.91,396.54,322.01,397.08,322.12z"/>
	</g>
</g>
</svg>