<svg xmlns="http://www.w3.org/2000/svg" xmlns:xlink="http://www.w3.org/1999/xlink" version="1.1" id="Layer_1" x="0px" y="0px" style="enable-background:new 0 0 800 800;" xml:space="preserve" viewBox="244.96 282.21 310.16 275.73">
<style type="text/css">
	.st0{fill:#010101;}
</style>
<path class="st0" d="M550.77,341.04c-0.63-2.09-1.26-4.19-1.89-6.28c-8.1-20.98-21.62-37.01-42.35-46.48  c-8.12-2.98-16.52-4.75-25.07-5.85c-0.91,0-1.82,0-2.73-0.01c-0.88-0.07-1.76-0.14-2.65-0.21c-1.82,0.07-3.63,0.14-5.45,0.21  c-3.29,0.35-6.58,0.71-9.87,1.06c-0.53,0.1-1.07,0.19-1.6,0.29c-0.84,0.81-1.88,0.67-2.9,0.63c-1.82,0.55-3.64,1.09-5.46,1.64  c-2.28,0.73-4.55,1.47-6.83,2.2c-8.62,3.77-16.68,8.5-24.15,14.23c-1.88,1.79-3.77,3.58-5.65,5.37  c-5.25,5.73-9.86,11.96-14.27,19.03c-1.89-3.18-3.4-5.72-4.9-8.25c-0.61-0.82-1.21-1.64-1.82-2.45c-4.24-4.77-8.4-9.63-13.26-13.81  c-0.99-0.87-1.98-1.74-2.98-2.61c-2.34-1.52-4.68-3.03-7.01-4.55c-0.59-0.34-1.17-0.68-1.76-1.02c-1.83-1.05-3.67-2.1-5.5-3.15  c-3.11-1.05-6.24-2.08-9.04-3.86c-6.27-1.44-12.54-2.87-18.81-4.31c-4.76-0.14-9.53-0.27-14.29-0.41c-3.31,0.28-6.62,0.57-9.93,0.85  c-3.9,0.94-7.79,1.89-11.69,2.83c-6.9,2.9-13.48,6.44-19.93,10.2c-2.32,2.02-4.64,4.04-6.95,6.06  c-11.9,11.69-19.45,25.81-23.49,41.91c-0.35,1.4-0.41,2.99-1.69,4.02c0.49,3.06-0.99,5.9-0.99,8.9c-0.75,10.2-1.48,20.39-0.19,30.61  c0.76,4.48,1.52,8.96,2.29,13.44c0.67,2.35,1.33,4.69,2,7.04c0.72,2.16,1.44,4.32,2.16,6.47c1.24,2.99,2.47,5.99,3.71,8.98  c1.3,2.69,2.6,5.38,3.89,8.06c4.43,7.19,8.85,14.38,13.28,21.57c1.54,2.1,3.08,4.21,4.62,6.31c1.43,1.81,2.85,3.62,4.28,5.43  c3.08,3.58,6.16,7.17,9.24,10.75c3.18,3.37,6.36,6.74,9.55,10.11c3.99,3.18,7.45,6.9,10.94,10.59c3.88,2.98,7.65,6.09,10.91,9.77  c7.04,5.63,14.07,11.27,21.1,16.9c1.81,0.98,3.57,2.03,4.92,3.64c1.67,0.71,3.08,1.77,4.33,3.07c1.67,0.9,3.31,1.86,4.56,3.34  c6.71,4.35,13.71,8.29,19.79,13.56c3.17,0.67,5.57,2.7,8.07,4.55c1.65,1.22,3.33,2.39,5.34,2.97c6.69,5.55,12.69,3.98,19.63-0.45  c12.42-7.91,24.77-15.94,37.03-24.1c2.05-1.5,4.09-3.01,6.14-4.51c2.74-2.1,5.48-4.19,8.23-6.29c1.73-1.89,3.71-3.45,6.03-4.56  c2.21-2.4,4.73-4.44,7.48-6.19c0.88-1.09,1.76-2.19,3.39-2.03l-0.04-0.09c3.35-5.04,8.59-8.13,12.74-12.34  c2.13-2.08,4.26-4.16,6.39-6.24c0.6-1.2,1.58-2.02,2.73-2.66c2.35-2.45,4.71-4.9,7.06-7.35c1.29-1.44,2.57-2.89,3.86-4.33  c0.73-0.94,1.43-1.91,2.2-2.82c17.44-20.53,31.42-42.99,38.58-69.25c0.75-3.56,1.51-7.13,2.26-10.69c0.25-3.85,0.63-7.69,0.73-11.54  C555.38,366.14,553.83,353.5,550.77,341.04z M538.21,401.35c-0.15,1.94-0.69,3.76-1.67,5.44c-0.79,3.46-2.02,6.75-3.84,9.82  c-0.64,1.49-1.28,2.99-1.91,4.48c-0.92,1.81-1.83,3.61-2.75,5.42c-2.16,4.79-4.82,9.27-8.01,13.45  c-3.92,6.43-8.38,12.45-13.38,18.09c-2.72,3.48-5.31,7.08-8.76,9.93c-6.42,8-13.73,15.1-21.7,21.52c-3.48,3.85-7.43,7.16-11.69,10.1  c-9.38,8.73-19.72,16.18-30.39,23.22c-6.92,5.36-14.18,10.2-21.86,14.41c-3.28,2.07-6.57,4.13-9.84,6.22  c-1.54,0.98-2.98,1.03-4.6,0.07c-16.23-9.61-32.11-19.74-46.89-31.51c-0.84-0.63-1.69-1.25-2.53-1.88c-1.35-1.12-2.7-2.24-4.05-3.36  c-5.04-2.92-9.19-6.94-13.36-10.92c-3.95-2.5-7.07-5.95-10.47-9.08c-1.87-1.11-3.3-2.67-4.54-4.43  c-6.77-6.14-13.28-12.54-18.8-19.87c-2-1.38-3.42-3.26-4.58-5.36c-1.7-2.12-3.39-4.23-5.09-6.35c-1.9-2.19-3.75-4.41-4.95-7.09  c-1.21-0.97-1.97-2.24-2.54-3.66c-2.54-3.35-4.93-6.8-6.5-10.74c-1.67-2.59-3.44-5.13-4.26-8.16c-0.41-0.85-0.82-1.7-1.23-2.55  c-1.2-1.96-2.14-4.03-2.56-6.31c-1.26-1.59-1.6-3.54-2.05-5.44c-0.94-1.68-1.44-3.49-1.67-5.39c-0.77-1.75-1.39-3.54-1.41-5.49  c-1.66-6.2-2.77-12.47-2.4-18.92c-0.31-2.98-0.66-5.95,0.35-8.88c-0.77-1.88,0.16-3.66,0.3-5.49c0.25-3.64,0.3-7.32,1.7-10.78  c0.06-2.28,0.62-4.45,1.58-6.51c0.6-3.76,1.7-7.35,3.69-10.62c1.5-4.24,3.44-8.24,6.35-11.72c0.59-0.89,1.19-1.77,1.78-2.66  c1.34-1.94,2.54-4,4.55-5.37c7.36-8.22,16.37-13.78,26.98-16.75c2.64-0.94,5.3-1.76,8.12-1.89c2.68-0.31,5.29-1.19,8.04-0.87  c11.08-0.92,21.56,1.37,31.61,5.96c9.17,3.19,16.53,9.13,23.61,15.49c1,0.9,1.28,1.95,0.83,3.2c4.16,0.9,5.67,4.6,7.76,7.58  c2.31,3.28,4.42,6.73,5.65,10.61c1.39,1.56,1.55,3.65,2.38,5.45c1.36,3.49,2.6,7.02,2.85,10.8c0.12,0.47,0.24,0.94,0.36,1.41  c1.09,4.54,2.19,9.08,3.42,14.21c0.58-1.49,0.94-2.4,1.3-3.31c0.33-1.42-0.05-3,0.92-4.29c0.58-2.65,1.17-5.31,1.75-7.96  c0.44-1.81,0.88-3.62,1.32-5.43c0.35-2.36,1.1-4.58,2.25-6.66c1.5-4.73,3.6-9.16,6.57-13.16c9.87-16.16,24.21-26.25,42.32-31.23  c2.08-0.42,4.17-0.84,6.25-1.26c1.69-1.04,3.57-0.79,5.41-0.82c3.23-0.94,6.52-0.97,9.83-0.71c16.26,0.81,30.73,5.84,42.19,17.94  c3.1,1.92,4.76,5.09,6.81,7.92c8.24,10.34,11.84,22.54,13.99,35.29c0.49,2.92,0.6,5.91,0.88,8.87c0.05,0.9,0.09,1.81,0.14,2.71  C542.19,379.32,542.09,390.54,538.21,401.35z"/>
</svg>